<mxfile host="app.diagrams.net" modified="2023-07-27T19:20:07.576Z" agent="Mozilla/5.0 (Windows NT 10.0; Win64; x64) AppleWebKit/537.36 (KHTML, like Gecko) Chrome/115.0.0.0 Safari/537.36" etag="9DorI5x3Bleh345Olnyy" version="21.6.5" type="device">
  <diagram name="Página-1" id="dG00mdZPdMtr62z00cmZ">
    <mxGraphModel dx="1750" dy="1152" grid="0" gridSize="10" guides="1" tooltips="1" connect="1" arrows="1" fold="1" page="1" pageScale="1" pageWidth="827" pageHeight="1169" background="none" math="0" shadow="0">
      <root>
        <mxCell id="0" />
        <mxCell id="1" parent="0" />
        <mxCell id="wiHUEbu9_wPqcJig13ah-1" value="Uma clínica veterinária deseja cadastrar os pets que são atendidos em seu local.&#xa;&#xa;- a clínica contém um endereço;&#xa;- os pets deverão ter nome, data de nascimento, tipo de pet;&#xa;- os pets deverão ter raça;&#xa;- os pets deverão ter donos;&#xa;- a clínica deseja cadastrar seus veterinários e todo atendimento de pet será feito por um veterinário;&#xa;&#xa;DML&#xa;&#xa;- cada atendimento deve registrar qual veterinário atendeu, qual pet foi atendido, descrição da consulta e data da consulta&#xa;&#xa;DQL&#xa;&#xa;- listar todos os veterinários (nome e CRMV) de uma clínica (razão social)&#xa;- listar todas as raças que começam com a letra S&#xa;- listar todos os tipos de pet que terminam com a letra O&#xa;- listar todos os pets mostrando os nomes dos seus donos&#xa;- listar todos os atendimentos mostrando o nome do veterinário que atendeu, o nome, a raça e o tipo do pet que foi atendido, o nome do dono do pet e o nome da clínica onde o pet foi atendido" style="text;whiteSpace=wrap;fontColor=#000000;labelBackgroundColor=none;" parent="1" vertex="1">
          <mxGeometry x="84" y="67" width="660" height="233" as="geometry" />
        </mxCell>
        <mxCell id="CsGC-FG-fX2qewvNtBGw-79" style="edgeStyle=orthogonalEdgeStyle;shape=connector;rounded=0;orthogonalLoop=1;jettySize=auto;html=1;entryX=0.5;entryY=0;entryDx=0;entryDy=0;labelBackgroundColor=default;strokeColor=default;fontFamily=Helvetica;fontSize=12;fontColor=default;endArrow=none;endFill=0;" parent="1" source="CsGC-FG-fX2qewvNtBGw-75" target="CsGC-FG-fX2qewvNtBGw-78" edge="1">
          <mxGeometry relative="1" as="geometry" />
        </mxCell>
        <mxCell id="CsGC-FG-fX2qewvNtBGw-81" style="edgeStyle=orthogonalEdgeStyle;shape=connector;rounded=0;orthogonalLoop=1;jettySize=auto;html=1;entryX=0.5;entryY=1;entryDx=0;entryDy=0;labelBackgroundColor=default;strokeColor=default;fontFamily=Helvetica;fontSize=12;fontColor=default;endArrow=none;endFill=0;" parent="1" source="CsGC-FG-fX2qewvNtBGw-75" target="CsGC-FG-fX2qewvNtBGw-76" edge="1">
          <mxGeometry relative="1" as="geometry" />
        </mxCell>
        <mxCell id="CsGC-FG-fX2qewvNtBGw-75" value="Clínica Veterinária" style="rounded=0;whiteSpace=wrap;html=1;fontFamily=Helvetica;fontSize=12;fontColor=default;fillColor=none;gradientColor=none;" parent="1" vertex="1">
          <mxGeometry x="269" y="578" width="120" height="60" as="geometry" />
        </mxCell>
        <mxCell id="CsGC-FG-fX2qewvNtBGw-76" value="Endereço" style="ellipse;whiteSpace=wrap;html=1;fontFamily=Helvetica;fontSize=12;fontColor=default;fillColor=none;gradientColor=none;" parent="1" vertex="1">
          <mxGeometry x="283" y="487" width="92" height="56" as="geometry" />
        </mxCell>
        <mxCell id="CsGC-FG-fX2qewvNtBGw-87" style="edgeStyle=orthogonalEdgeStyle;shape=connector;rounded=0;orthogonalLoop=1;jettySize=auto;html=1;entryX=0.5;entryY=0;entryDx=0;entryDy=0;labelBackgroundColor=default;strokeColor=default;fontFamily=Helvetica;fontSize=12;fontColor=default;endArrow=none;endFill=0;" parent="1" source="CsGC-FG-fX2qewvNtBGw-78" target="CsGC-FG-fX2qewvNtBGw-83" edge="1">
          <mxGeometry relative="1" as="geometry" />
        </mxCell>
        <mxCell id="CsGC-FG-fX2qewvNtBGw-88" style="edgeStyle=orthogonalEdgeStyle;shape=connector;rounded=0;orthogonalLoop=1;jettySize=auto;html=1;entryX=0.5;entryY=0;entryDx=0;entryDy=0;labelBackgroundColor=default;strokeColor=default;fontFamily=Helvetica;fontSize=12;fontColor=default;endArrow=none;endFill=0;" parent="1" source="CsGC-FG-fX2qewvNtBGw-78" target="CsGC-FG-fX2qewvNtBGw-82" edge="1">
          <mxGeometry relative="1" as="geometry" />
        </mxCell>
        <mxCell id="CsGC-FG-fX2qewvNtBGw-78" value="Possui" style="rhombus;whiteSpace=wrap;html=1;fontFamily=Helvetica;fontSize=12;fontColor=default;fillColor=none;gradientColor=none;" parent="1" vertex="1">
          <mxGeometry x="289" y="704" width="80" height="80" as="geometry" />
        </mxCell>
        <mxCell id="CsGC-FG-fX2qewvNtBGw-80" value="1" style="text;html=1;align=center;verticalAlign=middle;resizable=0;points=[];autosize=1;strokeColor=none;fillColor=none;fontSize=12;fontFamily=Helvetica;fontColor=default;" parent="1" vertex="1">
          <mxGeometry x="304" y="638" width="25" height="26" as="geometry" />
        </mxCell>
        <mxCell id="CsGC-FG-fX2qewvNtBGw-86" style="edgeStyle=orthogonalEdgeStyle;shape=connector;rounded=0;orthogonalLoop=1;jettySize=auto;html=1;entryX=1;entryY=0.5;entryDx=0;entryDy=0;labelBackgroundColor=default;strokeColor=default;fontFamily=Helvetica;fontSize=12;fontColor=default;endArrow=none;endFill=0;" parent="1" source="CsGC-FG-fX2qewvNtBGw-82" target="CsGC-FG-fX2qewvNtBGw-84" edge="1">
          <mxGeometry relative="1" as="geometry" />
        </mxCell>
        <mxCell id="CsGC-FG-fX2qewvNtBGw-95" style="edgeStyle=orthogonalEdgeStyle;shape=connector;rounded=0;orthogonalLoop=1;jettySize=auto;html=1;entryX=1;entryY=0.5;entryDx=0;entryDy=0;labelBackgroundColor=default;strokeColor=default;fontFamily=Helvetica;fontSize=12;fontColor=default;endArrow=none;endFill=0;" parent="1" source="CsGC-FG-fX2qewvNtBGw-82" target="CsGC-FG-fX2qewvNtBGw-94" edge="1">
          <mxGeometry relative="1" as="geometry" />
        </mxCell>
        <mxCell id="CsGC-FG-fX2qewvNtBGw-96" style="edgeStyle=orthogonalEdgeStyle;shape=connector;rounded=0;orthogonalLoop=1;jettySize=auto;html=1;entryX=0.5;entryY=0;entryDx=0;entryDy=0;labelBackgroundColor=default;strokeColor=default;fontFamily=Helvetica;fontSize=12;fontColor=default;endArrow=none;endFill=0;" parent="1" source="CsGC-FG-fX2qewvNtBGw-82" target="CsGC-FG-fX2qewvNtBGw-92" edge="1">
          <mxGeometry relative="1" as="geometry" />
        </mxCell>
        <mxCell id="CsGC-FG-fX2qewvNtBGw-97" style="edgeStyle=orthogonalEdgeStyle;shape=connector;rounded=0;orthogonalLoop=1;jettySize=auto;html=1;entryX=0;entryY=0.5;entryDx=0;entryDy=0;labelBackgroundColor=default;strokeColor=default;fontFamily=Helvetica;fontSize=12;fontColor=default;endArrow=none;endFill=0;" parent="1" source="CsGC-FG-fX2qewvNtBGw-82" target="CsGC-FG-fX2qewvNtBGw-93" edge="1">
          <mxGeometry relative="1" as="geometry" />
        </mxCell>
        <mxCell id="CsGC-FG-fX2qewvNtBGw-98" style="edgeStyle=orthogonalEdgeStyle;shape=connector;rounded=0;orthogonalLoop=1;jettySize=auto;html=1;entryX=0;entryY=0.5;entryDx=0;entryDy=0;labelBackgroundColor=default;strokeColor=default;fontFamily=Helvetica;fontSize=12;fontColor=default;endArrow=none;endFill=0;" parent="1" source="CsGC-FG-fX2qewvNtBGw-82" target="CsGC-FG-fX2qewvNtBGw-91" edge="1">
          <mxGeometry relative="1" as="geometry" />
        </mxCell>
        <mxCell id="CsGC-FG-fX2qewvNtBGw-82" value="Pet" style="rounded=0;whiteSpace=wrap;html=1;fontFamily=Helvetica;fontSize=12;fontColor=default;fillColor=none;gradientColor=none;" parent="1" vertex="1">
          <mxGeometry x="498" y="855" width="120" height="60" as="geometry" />
        </mxCell>
        <mxCell id="CsGC-FG-fX2qewvNtBGw-85" style="edgeStyle=orthogonalEdgeStyle;shape=connector;rounded=0;orthogonalLoop=1;jettySize=auto;html=1;entryX=0;entryY=0.5;entryDx=0;entryDy=0;labelBackgroundColor=default;strokeColor=default;fontFamily=Helvetica;fontSize=12;fontColor=default;endArrow=none;endFill=0;" parent="1" source="CsGC-FG-fX2qewvNtBGw-83" target="CsGC-FG-fX2qewvNtBGw-84" edge="1">
          <mxGeometry relative="1" as="geometry" />
        </mxCell>
        <mxCell id="CsGC-FG-fX2qewvNtBGw-83" value="Veterinários" style="rounded=0;whiteSpace=wrap;html=1;fontFamily=Helvetica;fontSize=12;fontColor=default;fillColor=none;gradientColor=none;" parent="1" vertex="1">
          <mxGeometry x="40" y="855" width="120" height="60" as="geometry" />
        </mxCell>
        <mxCell id="CsGC-FG-fX2qewvNtBGw-84" value="Atende" style="rhombus;whiteSpace=wrap;html=1;fontFamily=Helvetica;fontSize=12;fontColor=default;fillColor=none;gradientColor=none;" parent="1" vertex="1">
          <mxGeometry x="289" y="845" width="80" height="80" as="geometry" />
        </mxCell>
        <mxCell id="CsGC-FG-fX2qewvNtBGw-89" value="1" style="text;html=1;strokeColor=none;fillColor=none;align=center;verticalAlign=middle;whiteSpace=wrap;rounded=0;fontSize=12;fontFamily=Helvetica;fontColor=default;" parent="1" vertex="1">
          <mxGeometry x="160" y="885" width="36" height="30" as="geometry" />
        </mxCell>
        <mxCell id="CsGC-FG-fX2qewvNtBGw-90" value="N" style="text;html=1;strokeColor=none;fillColor=none;align=center;verticalAlign=middle;whiteSpace=wrap;rounded=0;fontSize=12;fontFamily=Helvetica;fontColor=default;" parent="1" vertex="1">
          <mxGeometry x="462" y="885" width="36" height="30" as="geometry" />
        </mxCell>
        <mxCell id="CsGC-FG-fX2qewvNtBGw-102" style="edgeStyle=orthogonalEdgeStyle;shape=connector;rounded=0;orthogonalLoop=1;jettySize=auto;html=1;entryX=0.5;entryY=1;entryDx=0;entryDy=0;labelBackgroundColor=default;strokeColor=default;fontFamily=Helvetica;fontSize=12;fontColor=default;endArrow=none;endFill=0;" parent="1" source="CsGC-FG-fX2qewvNtBGw-91" target="CsGC-FG-fX2qewvNtBGw-101" edge="1">
          <mxGeometry relative="1" as="geometry" />
        </mxCell>
        <mxCell id="CsGC-FG-fX2qewvNtBGw-103" style="edgeStyle=orthogonalEdgeStyle;shape=connector;rounded=0;orthogonalLoop=1;jettySize=auto;html=1;entryX=0.5;entryY=0;entryDx=0;entryDy=0;labelBackgroundColor=default;strokeColor=default;fontFamily=Helvetica;fontSize=12;fontColor=default;endArrow=none;endFill=0;" parent="1" source="CsGC-FG-fX2qewvNtBGw-91" target="CsGC-FG-fX2qewvNtBGw-100" edge="1">
          <mxGeometry relative="1" as="geometry" />
        </mxCell>
        <mxCell id="CsGC-FG-fX2qewvNtBGw-91" value="Possui" style="rhombus;whiteSpace=wrap;html=1;fontFamily=Helvetica;fontSize=12;fontColor=default;fillColor=none;gradientColor=none;" parent="1" vertex="1">
          <mxGeometry x="725" y="845" width="80" height="80" as="geometry" />
        </mxCell>
        <mxCell id="CsGC-FG-fX2qewvNtBGw-92" value="Data de&lt;br&gt;nascimento&amp;nbsp;" style="ellipse;whiteSpace=wrap;html=1;fontFamily=Helvetica;fontSize=12;fontColor=default;fillColor=none;gradientColor=none;" parent="1" vertex="1">
          <mxGeometry x="512" y="1025" width="92" height="56" as="geometry" />
        </mxCell>
        <mxCell id="CsGC-FG-fX2qewvNtBGw-93" value="Tipo de Pet" style="ellipse;whiteSpace=wrap;html=1;fontFamily=Helvetica;fontSize=12;fontColor=default;fillColor=none;gradientColor=none;" parent="1" vertex="1">
          <mxGeometry x="618" y="969" width="92" height="56" as="geometry" />
        </mxCell>
        <mxCell id="CsGC-FG-fX2qewvNtBGw-94" value="Nome" style="ellipse;whiteSpace=wrap;html=1;fontFamily=Helvetica;fontSize=12;fontColor=default;fillColor=none;gradientColor=none;" parent="1" vertex="1">
          <mxGeometry x="406" y="969" width="92" height="56" as="geometry" />
        </mxCell>
        <mxCell id="CsGC-FG-fX2qewvNtBGw-111" style="edgeStyle=orthogonalEdgeStyle;shape=connector;rounded=0;orthogonalLoop=1;jettySize=auto;html=1;entryX=0.5;entryY=0;entryDx=0;entryDy=0;labelBackgroundColor=default;strokeColor=default;fontFamily=Helvetica;fontSize=12;fontColor=default;endArrow=none;endFill=0;" parent="1" source="CsGC-FG-fX2qewvNtBGw-100" target="CsGC-FG-fX2qewvNtBGw-110" edge="1">
          <mxGeometry relative="1" as="geometry" />
        </mxCell>
        <mxCell id="CsGC-FG-fX2qewvNtBGw-112" style="edgeStyle=orthogonalEdgeStyle;shape=connector;rounded=0;orthogonalLoop=1;jettySize=auto;html=1;entryX=1;entryY=0.5;entryDx=0;entryDy=0;labelBackgroundColor=default;strokeColor=default;fontFamily=Helvetica;fontSize=12;fontColor=default;endArrow=none;endFill=0;" parent="1" source="CsGC-FG-fX2qewvNtBGw-100" target="CsGC-FG-fX2qewvNtBGw-108" edge="1">
          <mxGeometry relative="1" as="geometry" />
        </mxCell>
        <mxCell id="CsGC-FG-fX2qewvNtBGw-113" style="edgeStyle=orthogonalEdgeStyle;shape=connector;rounded=0;orthogonalLoop=1;jettySize=auto;html=1;entryX=0;entryY=0.5;entryDx=0;entryDy=0;labelBackgroundColor=default;strokeColor=default;fontFamily=Helvetica;fontSize=12;fontColor=default;endArrow=none;endFill=0;" parent="1" source="CsGC-FG-fX2qewvNtBGw-100" target="CsGC-FG-fX2qewvNtBGw-109" edge="1">
          <mxGeometry relative="1" as="geometry" />
        </mxCell>
        <mxCell id="CsGC-FG-fX2qewvNtBGw-100" value="Dono" style="rounded=0;whiteSpace=wrap;html=1;fontFamily=Helvetica;fontSize=12;fontColor=default;fillColor=none;gradientColor=none;" parent="1" vertex="1">
          <mxGeometry x="876" y="925" width="120" height="60" as="geometry" />
        </mxCell>
        <mxCell id="tDhhom9z5zQMcH-Hh3Hq-123" style="edgeStyle=orthogonalEdgeStyle;rounded=0;orthogonalLoop=1;jettySize=auto;html=1;entryX=0.5;entryY=1;entryDx=0;entryDy=0;endArrow=none;endFill=0;" edge="1" parent="1" source="CsGC-FG-fX2qewvNtBGw-101" target="tDhhom9z5zQMcH-Hh3Hq-122">
          <mxGeometry relative="1" as="geometry" />
        </mxCell>
        <mxCell id="CsGC-FG-fX2qewvNtBGw-101" value="Raça" style="rounded=0;whiteSpace=wrap;html=1;fontFamily=Helvetica;fontSize=12;fontColor=default;fillColor=none;gradientColor=none;" parent="1" vertex="1">
          <mxGeometry x="705" y="722" width="120" height="60" as="geometry" />
        </mxCell>
        <mxCell id="CsGC-FG-fX2qewvNtBGw-104" value="N" style="text;html=1;strokeColor=none;fillColor=none;align=center;verticalAlign=middle;whiteSpace=wrap;rounded=0;fontSize=12;fontFamily=Helvetica;fontColor=default;" parent="1" vertex="1">
          <mxGeometry x="899" y="895" width="36" height="30" as="geometry" />
        </mxCell>
        <mxCell id="CsGC-FG-fX2qewvNtBGw-105" value="N" style="text;html=1;strokeColor=none;fillColor=none;align=center;verticalAlign=middle;whiteSpace=wrap;rounded=0;fontSize=12;fontFamily=Helvetica;fontColor=default;" parent="1" vertex="1">
          <mxGeometry x="522" y="825" width="36" height="30" as="geometry" />
        </mxCell>
        <mxCell id="CsGC-FG-fX2qewvNtBGw-106" value="N" style="text;html=1;strokeColor=none;fillColor=none;align=center;verticalAlign=middle;whiteSpace=wrap;rounded=0;fontSize=12;fontFamily=Helvetica;fontColor=default;" parent="1" vertex="1">
          <mxGeometry x="99" y="825" width="36" height="30" as="geometry" />
        </mxCell>
        <mxCell id="CsGC-FG-fX2qewvNtBGw-107" value="1" style="text;html=1;strokeColor=none;fillColor=none;align=center;verticalAlign=middle;whiteSpace=wrap;rounded=0;fontSize=12;fontFamily=Helvetica;fontColor=default;" parent="1" vertex="1">
          <mxGeometry x="729" y="782" width="36" height="30" as="geometry" />
        </mxCell>
        <mxCell id="CsGC-FG-fX2qewvNtBGw-108" value="Nome" style="ellipse;whiteSpace=wrap;html=1;fontFamily=Helvetica;fontSize=12;fontColor=default;fillColor=none;gradientColor=none;" parent="1" vertex="1">
          <mxGeometry x="784" y="1022" width="92" height="56" as="geometry" />
        </mxCell>
        <mxCell id="CsGC-FG-fX2qewvNtBGw-109" value="Telefone" style="ellipse;whiteSpace=wrap;html=1;fontFamily=Helvetica;fontSize=12;fontColor=default;fillColor=none;gradientColor=none;" parent="1" vertex="1">
          <mxGeometry x="996" y="1022" width="92" height="56" as="geometry" />
        </mxCell>
        <mxCell id="CsGC-FG-fX2qewvNtBGw-110" value="Endereço" style="ellipse;whiteSpace=wrap;html=1;fontFamily=Helvetica;fontSize=12;fontColor=default;fillColor=none;gradientColor=none;" parent="1" vertex="1">
          <mxGeometry x="890" y="1088" width="92" height="56" as="geometry" />
        </mxCell>
        <mxCell id="NUjhxWWRy2sO12nOuInH-2" value="Conceitual" style="rounded=1;whiteSpace=wrap;html=1;fillColor=#f8cecc;strokeColor=#b85450;" parent="1" vertex="1">
          <mxGeometry x="294.5" y="415" width="69" height="23" as="geometry" />
        </mxCell>
        <mxCell id="NUjhxWWRy2sO12nOuInH-3" value="Fisíco" style="rounded=1;whiteSpace=wrap;html=1;fillColor=#f8cecc;strokeColor=#b85450;" parent="1" vertex="1">
          <mxGeometry x="1522" y="617" width="69" height="23" as="geometry" />
        </mxCell>
        <mxCell id="NUjhxWWRy2sO12nOuInH-6" value="Lógico" style="rounded=1;whiteSpace=wrap;html=1;fillColor=#f8cecc;strokeColor=#b85450;" parent="1" vertex="1">
          <mxGeometry x="1145" y="139" width="69" height="23" as="geometry" />
        </mxCell>
        <mxCell id="tDhhom9z5zQMcH-Hh3Hq-3" value="Clinica Veterinária" style="shape=table;startSize=30;container=1;collapsible=1;childLayout=tableLayout;fixedRows=1;rowLines=0;fontStyle=1;align=center;resizeLast=1;html=1;" vertex="1" parent="1">
          <mxGeometry x="861" y="233" width="180" height="90" as="geometry" />
        </mxCell>
        <mxCell id="tDhhom9z5zQMcH-Hh3Hq-4" value="" style="shape=tableRow;horizontal=0;startSize=0;swimlaneHead=0;swimlaneBody=0;fillColor=none;collapsible=0;dropTarget=0;points=[[0,0.5],[1,0.5]];portConstraint=eastwest;top=0;left=0;right=0;bottom=1;" vertex="1" parent="tDhhom9z5zQMcH-Hh3Hq-3">
          <mxGeometry y="30" width="180" height="30" as="geometry" />
        </mxCell>
        <mxCell id="tDhhom9z5zQMcH-Hh3Hq-5" value="PK" style="shape=partialRectangle;connectable=0;fillColor=none;top=0;left=0;bottom=0;right=0;fontStyle=1;overflow=hidden;whiteSpace=wrap;html=1;" vertex="1" parent="tDhhom9z5zQMcH-Hh3Hq-4">
          <mxGeometry width="30" height="30" as="geometry">
            <mxRectangle width="30" height="30" as="alternateBounds" />
          </mxGeometry>
        </mxCell>
        <mxCell id="tDhhom9z5zQMcH-Hh3Hq-6" value="IdClinica" style="shape=partialRectangle;connectable=0;fillColor=none;top=0;left=0;bottom=0;right=0;align=left;spacingLeft=6;fontStyle=5;overflow=hidden;whiteSpace=wrap;html=1;" vertex="1" parent="tDhhom9z5zQMcH-Hh3Hq-4">
          <mxGeometry x="30" width="150" height="30" as="geometry">
            <mxRectangle width="150" height="30" as="alternateBounds" />
          </mxGeometry>
        </mxCell>
        <mxCell id="tDhhom9z5zQMcH-Hh3Hq-7" value="" style="shape=tableRow;horizontal=0;startSize=0;swimlaneHead=0;swimlaneBody=0;fillColor=none;collapsible=0;dropTarget=0;points=[[0,0.5],[1,0.5]];portConstraint=eastwest;top=0;left=0;right=0;bottom=0;" vertex="1" parent="tDhhom9z5zQMcH-Hh3Hq-3">
          <mxGeometry y="60" width="180" height="30" as="geometry" />
        </mxCell>
        <mxCell id="tDhhom9z5zQMcH-Hh3Hq-8" value="" style="shape=partialRectangle;connectable=0;fillColor=none;top=0;left=0;bottom=0;right=0;editable=1;overflow=hidden;whiteSpace=wrap;html=1;" vertex="1" parent="tDhhom9z5zQMcH-Hh3Hq-7">
          <mxGeometry width="30" height="30" as="geometry">
            <mxRectangle width="30" height="30" as="alternateBounds" />
          </mxGeometry>
        </mxCell>
        <mxCell id="tDhhom9z5zQMcH-Hh3Hq-9" value="Endereço" style="shape=partialRectangle;connectable=0;fillColor=none;top=0;left=0;bottom=0;right=0;align=left;spacingLeft=6;overflow=hidden;whiteSpace=wrap;html=1;" vertex="1" parent="tDhhom9z5zQMcH-Hh3Hq-7">
          <mxGeometry x="30" width="150" height="30" as="geometry">
            <mxRectangle width="150" height="30" as="alternateBounds" />
          </mxGeometry>
        </mxCell>
        <mxCell id="tDhhom9z5zQMcH-Hh3Hq-16" value="Pet" style="shape=table;startSize=30;container=1;collapsible=1;childLayout=tableLayout;fixedRows=1;rowLines=0;fontStyle=1;align=center;resizeLast=1;html=1;" vertex="1" parent="1">
          <mxGeometry x="1150" y="233" width="180" height="210" as="geometry" />
        </mxCell>
        <mxCell id="tDhhom9z5zQMcH-Hh3Hq-17" value="" style="shape=tableRow;horizontal=0;startSize=0;swimlaneHead=0;swimlaneBody=0;fillColor=none;collapsible=0;dropTarget=0;points=[[0,0.5],[1,0.5]];portConstraint=eastwest;top=0;left=0;right=0;bottom=1;" vertex="1" parent="tDhhom9z5zQMcH-Hh3Hq-16">
          <mxGeometry y="30" width="180" height="30" as="geometry" />
        </mxCell>
        <mxCell id="tDhhom9z5zQMcH-Hh3Hq-18" value="PK" style="shape=partialRectangle;connectable=0;fillColor=none;top=0;left=0;bottom=0;right=0;fontStyle=1;overflow=hidden;whiteSpace=wrap;html=1;" vertex="1" parent="tDhhom9z5zQMcH-Hh3Hq-17">
          <mxGeometry width="30" height="30" as="geometry">
            <mxRectangle width="30" height="30" as="alternateBounds" />
          </mxGeometry>
        </mxCell>
        <mxCell id="tDhhom9z5zQMcH-Hh3Hq-19" value="IdPet" style="shape=partialRectangle;connectable=0;fillColor=none;top=0;left=0;bottom=0;right=0;align=left;spacingLeft=6;fontStyle=5;overflow=hidden;whiteSpace=wrap;html=1;" vertex="1" parent="tDhhom9z5zQMcH-Hh3Hq-17">
          <mxGeometry x="30" width="150" height="30" as="geometry">
            <mxRectangle width="150" height="30" as="alternateBounds" />
          </mxGeometry>
        </mxCell>
        <mxCell id="tDhhom9z5zQMcH-Hh3Hq-23" style="shape=tableRow;horizontal=0;startSize=0;swimlaneHead=0;swimlaneBody=0;fillColor=none;collapsible=0;dropTarget=0;points=[[0,0.5],[1,0.5]];portConstraint=eastwest;top=0;left=0;right=0;bottom=1;" vertex="1" parent="tDhhom9z5zQMcH-Hh3Hq-16">
          <mxGeometry y="60" width="180" height="30" as="geometry" />
        </mxCell>
        <mxCell id="tDhhom9z5zQMcH-Hh3Hq-24" value="FK" style="shape=partialRectangle;connectable=0;fillColor=none;top=0;left=0;bottom=0;right=0;fontStyle=1;overflow=hidden;whiteSpace=wrap;html=1;" vertex="1" parent="tDhhom9z5zQMcH-Hh3Hq-23">
          <mxGeometry width="30" height="30" as="geometry">
            <mxRectangle width="30" height="30" as="alternateBounds" />
          </mxGeometry>
        </mxCell>
        <mxCell id="tDhhom9z5zQMcH-Hh3Hq-25" value="IdClinica" style="shape=partialRectangle;connectable=0;fillColor=none;top=0;left=0;bottom=0;right=0;align=left;spacingLeft=6;fontStyle=5;overflow=hidden;whiteSpace=wrap;html=1;" vertex="1" parent="tDhhom9z5zQMcH-Hh3Hq-23">
          <mxGeometry x="30" width="150" height="30" as="geometry">
            <mxRectangle width="150" height="30" as="alternateBounds" />
          </mxGeometry>
        </mxCell>
        <mxCell id="tDhhom9z5zQMcH-Hh3Hq-26" style="shape=tableRow;horizontal=0;startSize=0;swimlaneHead=0;swimlaneBody=0;fillColor=none;collapsible=0;dropTarget=0;points=[[0,0.5],[1,0.5]];portConstraint=eastwest;top=0;left=0;right=0;bottom=1;" vertex="1" parent="tDhhom9z5zQMcH-Hh3Hq-16">
          <mxGeometry y="90" width="180" height="30" as="geometry" />
        </mxCell>
        <mxCell id="tDhhom9z5zQMcH-Hh3Hq-27" value="FK" style="shape=partialRectangle;connectable=0;fillColor=none;top=0;left=0;bottom=0;right=0;fontStyle=1;overflow=hidden;whiteSpace=wrap;html=1;" vertex="1" parent="tDhhom9z5zQMcH-Hh3Hq-26">
          <mxGeometry width="30" height="30" as="geometry">
            <mxRectangle width="30" height="30" as="alternateBounds" />
          </mxGeometry>
        </mxCell>
        <mxCell id="tDhhom9z5zQMcH-Hh3Hq-28" value="IdVeterinario" style="shape=partialRectangle;connectable=0;fillColor=none;top=0;left=0;bottom=0;right=0;align=left;spacingLeft=6;fontStyle=5;overflow=hidden;whiteSpace=wrap;html=1;" vertex="1" parent="tDhhom9z5zQMcH-Hh3Hq-26">
          <mxGeometry x="30" width="150" height="30" as="geometry">
            <mxRectangle width="150" height="30" as="alternateBounds" />
          </mxGeometry>
        </mxCell>
        <mxCell id="tDhhom9z5zQMcH-Hh3Hq-20" value="" style="shape=tableRow;horizontal=0;startSize=0;swimlaneHead=0;swimlaneBody=0;fillColor=none;collapsible=0;dropTarget=0;points=[[0,0.5],[1,0.5]];portConstraint=eastwest;top=0;left=0;right=0;bottom=0;" vertex="1" parent="tDhhom9z5zQMcH-Hh3Hq-16">
          <mxGeometry y="120" width="180" height="30" as="geometry" />
        </mxCell>
        <mxCell id="tDhhom9z5zQMcH-Hh3Hq-21" value="" style="shape=partialRectangle;connectable=0;fillColor=none;top=0;left=0;bottom=0;right=0;editable=1;overflow=hidden;whiteSpace=wrap;html=1;" vertex="1" parent="tDhhom9z5zQMcH-Hh3Hq-20">
          <mxGeometry width="30" height="30" as="geometry">
            <mxRectangle width="30" height="30" as="alternateBounds" />
          </mxGeometry>
        </mxCell>
        <mxCell id="tDhhom9z5zQMcH-Hh3Hq-22" value="Nome" style="shape=partialRectangle;connectable=0;fillColor=none;top=0;left=0;bottom=0;right=0;align=left;spacingLeft=6;overflow=hidden;whiteSpace=wrap;html=1;" vertex="1" parent="tDhhom9z5zQMcH-Hh3Hq-20">
          <mxGeometry x="30" width="150" height="30" as="geometry">
            <mxRectangle width="150" height="30" as="alternateBounds" />
          </mxGeometry>
        </mxCell>
        <mxCell id="tDhhom9z5zQMcH-Hh3Hq-46" style="shape=tableRow;horizontal=0;startSize=0;swimlaneHead=0;swimlaneBody=0;fillColor=none;collapsible=0;dropTarget=0;points=[[0,0.5],[1,0.5]];portConstraint=eastwest;top=0;left=0;right=0;bottom=0;" vertex="1" parent="tDhhom9z5zQMcH-Hh3Hq-16">
          <mxGeometry y="150" width="180" height="30" as="geometry" />
        </mxCell>
        <mxCell id="tDhhom9z5zQMcH-Hh3Hq-47" style="shape=partialRectangle;connectable=0;fillColor=none;top=0;left=0;bottom=0;right=0;editable=1;overflow=hidden;whiteSpace=wrap;html=1;" vertex="1" parent="tDhhom9z5zQMcH-Hh3Hq-46">
          <mxGeometry width="30" height="30" as="geometry">
            <mxRectangle width="30" height="30" as="alternateBounds" />
          </mxGeometry>
        </mxCell>
        <mxCell id="tDhhom9z5zQMcH-Hh3Hq-48" value="Tipo de Pet" style="shape=partialRectangle;connectable=0;fillColor=none;top=0;left=0;bottom=0;right=0;align=left;spacingLeft=6;overflow=hidden;whiteSpace=wrap;html=1;" vertex="1" parent="tDhhom9z5zQMcH-Hh3Hq-46">
          <mxGeometry x="30" width="150" height="30" as="geometry">
            <mxRectangle width="150" height="30" as="alternateBounds" />
          </mxGeometry>
        </mxCell>
        <mxCell id="tDhhom9z5zQMcH-Hh3Hq-43" style="shape=tableRow;horizontal=0;startSize=0;swimlaneHead=0;swimlaneBody=0;fillColor=none;collapsible=0;dropTarget=0;points=[[0,0.5],[1,0.5]];portConstraint=eastwest;top=0;left=0;right=0;bottom=0;" vertex="1" parent="tDhhom9z5zQMcH-Hh3Hq-16">
          <mxGeometry y="180" width="180" height="30" as="geometry" />
        </mxCell>
        <mxCell id="tDhhom9z5zQMcH-Hh3Hq-44" style="shape=partialRectangle;connectable=0;fillColor=none;top=0;left=0;bottom=0;right=0;editable=1;overflow=hidden;whiteSpace=wrap;html=1;" vertex="1" parent="tDhhom9z5zQMcH-Hh3Hq-43">
          <mxGeometry width="30" height="30" as="geometry">
            <mxRectangle width="30" height="30" as="alternateBounds" />
          </mxGeometry>
        </mxCell>
        <mxCell id="tDhhom9z5zQMcH-Hh3Hq-45" value="Data de nascimento" style="shape=partialRectangle;connectable=0;fillColor=none;top=0;left=0;bottom=0;right=0;align=left;spacingLeft=6;overflow=hidden;whiteSpace=wrap;html=1;" vertex="1" parent="tDhhom9z5zQMcH-Hh3Hq-43">
          <mxGeometry x="30" width="150" height="30" as="geometry">
            <mxRectangle width="150" height="30" as="alternateBounds" />
          </mxGeometry>
        </mxCell>
        <mxCell id="tDhhom9z5zQMcH-Hh3Hq-29" value="Veterinário" style="shape=table;startSize=30;container=1;collapsible=1;childLayout=tableLayout;fixedRows=1;rowLines=0;fontStyle=1;align=center;resizeLast=1;html=1;" vertex="1" parent="1">
          <mxGeometry x="861" y="430" width="180" height="90" as="geometry" />
        </mxCell>
        <mxCell id="tDhhom9z5zQMcH-Hh3Hq-30" value="" style="shape=tableRow;horizontal=0;startSize=0;swimlaneHead=0;swimlaneBody=0;fillColor=none;collapsible=0;dropTarget=0;points=[[0,0.5],[1,0.5]];portConstraint=eastwest;top=0;left=0;right=0;bottom=1;" vertex="1" parent="tDhhom9z5zQMcH-Hh3Hq-29">
          <mxGeometry y="30" width="180" height="30" as="geometry" />
        </mxCell>
        <mxCell id="tDhhom9z5zQMcH-Hh3Hq-31" value="PK" style="shape=partialRectangle;connectable=0;fillColor=none;top=0;left=0;bottom=0;right=0;fontStyle=1;overflow=hidden;whiteSpace=wrap;html=1;" vertex="1" parent="tDhhom9z5zQMcH-Hh3Hq-30">
          <mxGeometry width="30" height="30" as="geometry">
            <mxRectangle width="30" height="30" as="alternateBounds" />
          </mxGeometry>
        </mxCell>
        <mxCell id="tDhhom9z5zQMcH-Hh3Hq-32" value="IdVeterinário" style="shape=partialRectangle;connectable=0;fillColor=none;top=0;left=0;bottom=0;right=0;align=left;spacingLeft=6;fontStyle=5;overflow=hidden;whiteSpace=wrap;html=1;" vertex="1" parent="tDhhom9z5zQMcH-Hh3Hq-30">
          <mxGeometry x="30" width="150" height="30" as="geometry">
            <mxRectangle width="150" height="30" as="alternateBounds" />
          </mxGeometry>
        </mxCell>
        <mxCell id="tDhhom9z5zQMcH-Hh3Hq-36" style="shape=tableRow;horizontal=0;startSize=0;swimlaneHead=0;swimlaneBody=0;fillColor=none;collapsible=0;dropTarget=0;points=[[0,0.5],[1,0.5]];portConstraint=eastwest;top=0;left=0;right=0;bottom=1;" vertex="1" parent="tDhhom9z5zQMcH-Hh3Hq-29">
          <mxGeometry y="60" width="180" height="30" as="geometry" />
        </mxCell>
        <mxCell id="tDhhom9z5zQMcH-Hh3Hq-37" value="FK" style="shape=partialRectangle;connectable=0;fillColor=none;top=0;left=0;bottom=0;right=0;fontStyle=1;overflow=hidden;whiteSpace=wrap;html=1;" vertex="1" parent="tDhhom9z5zQMcH-Hh3Hq-36">
          <mxGeometry width="30" height="30" as="geometry">
            <mxRectangle width="30" height="30" as="alternateBounds" />
          </mxGeometry>
        </mxCell>
        <mxCell id="tDhhom9z5zQMcH-Hh3Hq-38" value="IdClinica" style="shape=partialRectangle;connectable=0;fillColor=none;top=0;left=0;bottom=0;right=0;align=left;spacingLeft=6;fontStyle=5;overflow=hidden;whiteSpace=wrap;html=1;" vertex="1" parent="tDhhom9z5zQMcH-Hh3Hq-36">
          <mxGeometry x="30" width="150" height="30" as="geometry">
            <mxRectangle width="150" height="30" as="alternateBounds" />
          </mxGeometry>
        </mxCell>
        <mxCell id="tDhhom9z5zQMcH-Hh3Hq-40" style="edgeStyle=orthogonalEdgeStyle;rounded=0;orthogonalLoop=1;jettySize=auto;html=1;entryX=0;entryY=0.5;entryDx=0;entryDy=0;endArrow=none;endFill=0;startArrow=ERoneToMany;startFill=0;exitX=0;exitY=0.5;exitDx=0;exitDy=0;" edge="1" parent="1" source="tDhhom9z5zQMcH-Hh3Hq-36" target="tDhhom9z5zQMcH-Hh3Hq-3">
          <mxGeometry relative="1" as="geometry">
            <mxPoint x="820" y="521" as="sourcePoint" />
          </mxGeometry>
        </mxCell>
        <mxCell id="tDhhom9z5zQMcH-Hh3Hq-41" style="edgeStyle=orthogonalEdgeStyle;rounded=0;orthogonalLoop=1;jettySize=auto;html=1;entryX=0;entryY=0.5;entryDx=0;entryDy=0;endArrow=ERoneToMany;endFill=0;" edge="1" parent="1" source="tDhhom9z5zQMcH-Hh3Hq-30" target="tDhhom9z5zQMcH-Hh3Hq-26">
          <mxGeometry relative="1" as="geometry" />
        </mxCell>
        <mxCell id="tDhhom9z5zQMcH-Hh3Hq-42" style="edgeStyle=orthogonalEdgeStyle;rounded=0;orthogonalLoop=1;jettySize=auto;html=1;entryX=0;entryY=0.5;entryDx=0;entryDy=0;endArrow=ERoneToMany;endFill=0;" edge="1" parent="1" source="tDhhom9z5zQMcH-Hh3Hq-4" target="tDhhom9z5zQMcH-Hh3Hq-23">
          <mxGeometry relative="1" as="geometry" />
        </mxCell>
        <mxCell id="tDhhom9z5zQMcH-Hh3Hq-100" value="Dono" style="shape=table;startSize=30;container=1;collapsible=1;childLayout=tableLayout;fixedRows=1;rowLines=0;fontStyle=1;align=center;resizeLast=1;html=1;" vertex="1" parent="1">
          <mxGeometry x="1469" y="331" width="180" height="180" as="geometry" />
        </mxCell>
        <mxCell id="tDhhom9z5zQMcH-Hh3Hq-101" value="" style="shape=tableRow;horizontal=0;startSize=0;swimlaneHead=0;swimlaneBody=0;fillColor=none;collapsible=0;dropTarget=0;points=[[0,0.5],[1,0.5]];portConstraint=eastwest;top=0;left=0;right=0;bottom=1;" vertex="1" parent="tDhhom9z5zQMcH-Hh3Hq-100">
          <mxGeometry y="30" width="180" height="30" as="geometry" />
        </mxCell>
        <mxCell id="tDhhom9z5zQMcH-Hh3Hq-102" value="PK" style="shape=partialRectangle;connectable=0;fillColor=none;top=0;left=0;bottom=0;right=0;fontStyle=1;overflow=hidden;whiteSpace=wrap;html=1;" vertex="1" parent="tDhhom9z5zQMcH-Hh3Hq-101">
          <mxGeometry width="30" height="30" as="geometry">
            <mxRectangle width="30" height="30" as="alternateBounds" />
          </mxGeometry>
        </mxCell>
        <mxCell id="tDhhom9z5zQMcH-Hh3Hq-103" value="IdDono" style="shape=partialRectangle;connectable=0;fillColor=none;top=0;left=0;bottom=0;right=0;align=left;spacingLeft=6;fontStyle=5;overflow=hidden;whiteSpace=wrap;html=1;" vertex="1" parent="tDhhom9z5zQMcH-Hh3Hq-101">
          <mxGeometry x="30" width="150" height="30" as="geometry">
            <mxRectangle width="150" height="30" as="alternateBounds" />
          </mxGeometry>
        </mxCell>
        <mxCell id="tDhhom9z5zQMcH-Hh3Hq-116" style="shape=tableRow;horizontal=0;startSize=0;swimlaneHead=0;swimlaneBody=0;fillColor=none;collapsible=0;dropTarget=0;points=[[0,0.5],[1,0.5]];portConstraint=eastwest;top=0;left=0;right=0;bottom=1;" vertex="1" parent="tDhhom9z5zQMcH-Hh3Hq-100">
          <mxGeometry y="60" width="180" height="30" as="geometry" />
        </mxCell>
        <mxCell id="tDhhom9z5zQMcH-Hh3Hq-117" value="FK" style="shape=partialRectangle;connectable=0;fillColor=none;top=0;left=0;bottom=0;right=0;fontStyle=1;overflow=hidden;whiteSpace=wrap;html=1;" vertex="1" parent="tDhhom9z5zQMcH-Hh3Hq-116">
          <mxGeometry width="30" height="30" as="geometry">
            <mxRectangle width="30" height="30" as="alternateBounds" />
          </mxGeometry>
        </mxCell>
        <mxCell id="tDhhom9z5zQMcH-Hh3Hq-118" value="IdPet" style="shape=partialRectangle;connectable=0;fillColor=none;top=0;left=0;bottom=0;right=0;align=left;spacingLeft=6;fontStyle=5;overflow=hidden;whiteSpace=wrap;html=1;" vertex="1" parent="tDhhom9z5zQMcH-Hh3Hq-116">
          <mxGeometry x="30" width="150" height="30" as="geometry">
            <mxRectangle width="150" height="30" as="alternateBounds" />
          </mxGeometry>
        </mxCell>
        <mxCell id="tDhhom9z5zQMcH-Hh3Hq-104" value="" style="shape=tableRow;horizontal=0;startSize=0;swimlaneHead=0;swimlaneBody=0;fillColor=none;collapsible=0;dropTarget=0;points=[[0,0.5],[1,0.5]];portConstraint=eastwest;top=0;left=0;right=0;bottom=0;" vertex="1" parent="tDhhom9z5zQMcH-Hh3Hq-100">
          <mxGeometry y="90" width="180" height="30" as="geometry" />
        </mxCell>
        <mxCell id="tDhhom9z5zQMcH-Hh3Hq-105" value="" style="shape=partialRectangle;connectable=0;fillColor=none;top=0;left=0;bottom=0;right=0;editable=1;overflow=hidden;whiteSpace=wrap;html=1;" vertex="1" parent="tDhhom9z5zQMcH-Hh3Hq-104">
          <mxGeometry width="30" height="30" as="geometry">
            <mxRectangle width="30" height="30" as="alternateBounds" />
          </mxGeometry>
        </mxCell>
        <mxCell id="tDhhom9z5zQMcH-Hh3Hq-106" value="Nome" style="shape=partialRectangle;connectable=0;fillColor=none;top=0;left=0;bottom=0;right=0;align=left;spacingLeft=6;overflow=hidden;whiteSpace=wrap;html=1;" vertex="1" parent="tDhhom9z5zQMcH-Hh3Hq-104">
          <mxGeometry x="30" width="150" height="30" as="geometry">
            <mxRectangle width="150" height="30" as="alternateBounds" />
          </mxGeometry>
        </mxCell>
        <mxCell id="tDhhom9z5zQMcH-Hh3Hq-107" value="" style="shape=tableRow;horizontal=0;startSize=0;swimlaneHead=0;swimlaneBody=0;fillColor=none;collapsible=0;dropTarget=0;points=[[0,0.5],[1,0.5]];portConstraint=eastwest;top=0;left=0;right=0;bottom=0;" vertex="1" parent="tDhhom9z5zQMcH-Hh3Hq-100">
          <mxGeometry y="120" width="180" height="30" as="geometry" />
        </mxCell>
        <mxCell id="tDhhom9z5zQMcH-Hh3Hq-108" value="" style="shape=partialRectangle;connectable=0;fillColor=none;top=0;left=0;bottom=0;right=0;editable=1;overflow=hidden;whiteSpace=wrap;html=1;" vertex="1" parent="tDhhom9z5zQMcH-Hh3Hq-107">
          <mxGeometry width="30" height="30" as="geometry">
            <mxRectangle width="30" height="30" as="alternateBounds" />
          </mxGeometry>
        </mxCell>
        <mxCell id="tDhhom9z5zQMcH-Hh3Hq-109" value="Telefone" style="shape=partialRectangle;connectable=0;fillColor=none;top=0;left=0;bottom=0;right=0;align=left;spacingLeft=6;overflow=hidden;whiteSpace=wrap;html=1;" vertex="1" parent="tDhhom9z5zQMcH-Hh3Hq-107">
          <mxGeometry x="30" width="150" height="30" as="geometry">
            <mxRectangle width="150" height="30" as="alternateBounds" />
          </mxGeometry>
        </mxCell>
        <mxCell id="tDhhom9z5zQMcH-Hh3Hq-110" value="" style="shape=tableRow;horizontal=0;startSize=0;swimlaneHead=0;swimlaneBody=0;fillColor=none;collapsible=0;dropTarget=0;points=[[0,0.5],[1,0.5]];portConstraint=eastwest;top=0;left=0;right=0;bottom=0;" vertex="1" parent="tDhhom9z5zQMcH-Hh3Hq-100">
          <mxGeometry y="150" width="180" height="30" as="geometry" />
        </mxCell>
        <mxCell id="tDhhom9z5zQMcH-Hh3Hq-111" value="" style="shape=partialRectangle;connectable=0;fillColor=none;top=0;left=0;bottom=0;right=0;editable=1;overflow=hidden;whiteSpace=wrap;html=1;" vertex="1" parent="tDhhom9z5zQMcH-Hh3Hq-110">
          <mxGeometry width="30" height="30" as="geometry">
            <mxRectangle width="30" height="30" as="alternateBounds" />
          </mxGeometry>
        </mxCell>
        <mxCell id="tDhhom9z5zQMcH-Hh3Hq-112" value="Endereço" style="shape=partialRectangle;connectable=0;fillColor=none;top=0;left=0;bottom=0;right=0;align=left;spacingLeft=6;overflow=hidden;whiteSpace=wrap;html=1;" vertex="1" parent="tDhhom9z5zQMcH-Hh3Hq-110">
          <mxGeometry x="30" width="150" height="30" as="geometry">
            <mxRectangle width="150" height="30" as="alternateBounds" />
          </mxGeometry>
        </mxCell>
        <mxCell id="tDhhom9z5zQMcH-Hh3Hq-119" style="edgeStyle=orthogonalEdgeStyle;rounded=0;orthogonalLoop=1;jettySize=auto;html=1;entryX=0;entryY=0.5;entryDx=0;entryDy=0;endArrow=ERoneToMany;endFill=0;" edge="1" parent="1" source="tDhhom9z5zQMcH-Hh3Hq-17" target="tDhhom9z5zQMcH-Hh3Hq-128">
          <mxGeometry relative="1" as="geometry">
            <mxPoint x="1469" y="253" as="targetPoint" />
          </mxGeometry>
        </mxCell>
        <mxCell id="tDhhom9z5zQMcH-Hh3Hq-120" style="edgeStyle=orthogonalEdgeStyle;rounded=0;orthogonalLoop=1;jettySize=auto;html=1;entryX=0;entryY=0.5;entryDx=0;entryDy=0;endArrow=ERoneToMany;endFill=0;" edge="1" parent="1" source="tDhhom9z5zQMcH-Hh3Hq-17" target="tDhhom9z5zQMcH-Hh3Hq-116">
          <mxGeometry relative="1" as="geometry" />
        </mxCell>
        <mxCell id="tDhhom9z5zQMcH-Hh3Hq-121" value="N" style="text;html=1;strokeColor=none;fillColor=none;align=center;verticalAlign=middle;whiteSpace=wrap;rounded=0;fontSize=12;fontFamily=Helvetica;fontColor=default;" vertex="1" parent="1">
          <mxGeometry x="618" y="855" width="36" height="30" as="geometry" />
        </mxCell>
        <mxCell id="tDhhom9z5zQMcH-Hh3Hq-122" value="Nome" style="ellipse;whiteSpace=wrap;html=1;fontFamily=Helvetica;fontSize=12;fontColor=default;fillColor=none;gradientColor=none;" vertex="1" parent="1">
          <mxGeometry x="719" y="623" width="92" height="56" as="geometry" />
        </mxCell>
        <mxCell id="tDhhom9z5zQMcH-Hh3Hq-127" value="Raça" style="shape=table;startSize=30;container=1;collapsible=1;childLayout=tableLayout;fixedRows=1;rowLines=0;fontStyle=1;align=center;resizeLast=1;html=1;" vertex="1" parent="1">
          <mxGeometry x="1469" y="186" width="180" height="120" as="geometry" />
        </mxCell>
        <mxCell id="tDhhom9z5zQMcH-Hh3Hq-128" value="" style="shape=tableRow;horizontal=0;startSize=0;swimlaneHead=0;swimlaneBody=0;fillColor=none;collapsible=0;dropTarget=0;points=[[0,0.5],[1,0.5]];portConstraint=eastwest;top=0;left=0;right=0;bottom=1;" vertex="1" parent="tDhhom9z5zQMcH-Hh3Hq-127">
          <mxGeometry y="30" width="180" height="30" as="geometry" />
        </mxCell>
        <mxCell id="tDhhom9z5zQMcH-Hh3Hq-129" value="PK" style="shape=partialRectangle;connectable=0;fillColor=none;top=0;left=0;bottom=0;right=0;fontStyle=1;overflow=hidden;whiteSpace=wrap;html=1;" vertex="1" parent="tDhhom9z5zQMcH-Hh3Hq-128">
          <mxGeometry width="30" height="30" as="geometry">
            <mxRectangle width="30" height="30" as="alternateBounds" />
          </mxGeometry>
        </mxCell>
        <mxCell id="tDhhom9z5zQMcH-Hh3Hq-130" value="IdRaca" style="shape=partialRectangle;connectable=0;fillColor=none;top=0;left=0;bottom=0;right=0;align=left;spacingLeft=6;fontStyle=5;overflow=hidden;whiteSpace=wrap;html=1;" vertex="1" parent="tDhhom9z5zQMcH-Hh3Hq-128">
          <mxGeometry x="30" width="150" height="30" as="geometry">
            <mxRectangle width="150" height="30" as="alternateBounds" />
          </mxGeometry>
        </mxCell>
        <mxCell id="tDhhom9z5zQMcH-Hh3Hq-131" style="shape=tableRow;horizontal=0;startSize=0;swimlaneHead=0;swimlaneBody=0;fillColor=none;collapsible=0;dropTarget=0;points=[[0,0.5],[1,0.5]];portConstraint=eastwest;top=0;left=0;right=0;bottom=1;" vertex="1" parent="tDhhom9z5zQMcH-Hh3Hq-127">
          <mxGeometry y="60" width="180" height="30" as="geometry" />
        </mxCell>
        <mxCell id="tDhhom9z5zQMcH-Hh3Hq-132" value="FK" style="shape=partialRectangle;connectable=0;fillColor=none;top=0;left=0;bottom=0;right=0;fontStyle=1;overflow=hidden;whiteSpace=wrap;html=1;" vertex="1" parent="tDhhom9z5zQMcH-Hh3Hq-131">
          <mxGeometry width="30" height="30" as="geometry">
            <mxRectangle width="30" height="30" as="alternateBounds" />
          </mxGeometry>
        </mxCell>
        <mxCell id="tDhhom9z5zQMcH-Hh3Hq-133" value="IdPet" style="shape=partialRectangle;connectable=0;fillColor=none;top=0;left=0;bottom=0;right=0;align=left;spacingLeft=6;fontStyle=5;overflow=hidden;whiteSpace=wrap;html=1;" vertex="1" parent="tDhhom9z5zQMcH-Hh3Hq-131">
          <mxGeometry x="30" width="150" height="30" as="geometry">
            <mxRectangle width="150" height="30" as="alternateBounds" />
          </mxGeometry>
        </mxCell>
        <mxCell id="tDhhom9z5zQMcH-Hh3Hq-134" value="" style="shape=tableRow;horizontal=0;startSize=0;swimlaneHead=0;swimlaneBody=0;fillColor=none;collapsible=0;dropTarget=0;points=[[0,0.5],[1,0.5]];portConstraint=eastwest;top=0;left=0;right=0;bottom=0;" vertex="1" parent="tDhhom9z5zQMcH-Hh3Hq-127">
          <mxGeometry y="90" width="180" height="30" as="geometry" />
        </mxCell>
        <mxCell id="tDhhom9z5zQMcH-Hh3Hq-135" value="" style="shape=partialRectangle;connectable=0;fillColor=none;top=0;left=0;bottom=0;right=0;editable=1;overflow=hidden;whiteSpace=wrap;html=1;" vertex="1" parent="tDhhom9z5zQMcH-Hh3Hq-134">
          <mxGeometry width="30" height="30" as="geometry">
            <mxRectangle width="30" height="30" as="alternateBounds" />
          </mxGeometry>
        </mxCell>
        <mxCell id="tDhhom9z5zQMcH-Hh3Hq-136" value="Nome" style="shape=partialRectangle;connectable=0;fillColor=none;top=0;left=0;bottom=0;right=0;align=left;spacingLeft=6;overflow=hidden;whiteSpace=wrap;html=1;" vertex="1" parent="tDhhom9z5zQMcH-Hh3Hq-134">
          <mxGeometry x="30" width="150" height="30" as="geometry">
            <mxRectangle width="150" height="30" as="alternateBounds" />
          </mxGeometry>
        </mxCell>
        <mxCell id="tDhhom9z5zQMcH-Hh3Hq-144" value="" style="shape=image;verticalLabelPosition=bottom;labelBackgroundColor=default;verticalAlign=top;aspect=fixed;imageAspect=0;image=data:image/png,iVBORw0KGgoAAAANSUhEUgAABDYAAAI4CAYAAACRCWkGAAAAAXNSR0IArs4c6QAAAARnQU1BAACxjwv8YQUAAAAJcEhZcwAADsMAAA7DAcdvqGQAAJRHSURBVHhe7d09b9vI2vj/y/93semMlYLAcOlK6ow9wEpBglRpYiBVZOxd3NYpnMqAYcDVulj5Ln4HVqoAPk2qIEGkBc6BO6tyaQRBpIW77MvQf2Y4lPgkiZRISpS+nwXXDkWT1Ayf5uI8bA0VAQAAAAAAKKD/z/4EAAAAAAAoHAIbAAAAAACgsAhsAAAAAACAwiKwAQAAAAAACovOQwEAc9na2rK/AQAAAPkJhjEIbAAA5qIDG3//+GH/BQAAAGTvp0ePQoENmqIAAAAAAIDCIrABAAAAAAAKi8AGAAAAAAAoLAIbAAAAAACgsAhsAAAAAACAwiKwAQAAAAAACovABgAAAAAAKCwCGwAAAMAiHt7Js0eP5KfQ9FZu7CLJ3cixXsfb+dcAAJuCwAYAAACQgr2zW/n7xw873crZ3rW8evRIjolNAECmCGwAAAAAqduWxqdrOVC/XbfeyYMzEwCQAQIbAAAAQCa2pbynftz1A4EN28zEM3lrddy81fMO5Fr/4/pgtMyzd4RHACAKgQ0AAAAgL6Y/jgO5PrgeNVvpne2pf4+DG/u/6/lObQ/xLPf5zbb5HADgR2ADAAAAyMLDf+Xznfp58KvsO3Pk5l+ncrd3Jr3f3Tki228u5WyPJisAMC8CGwAAAEDqbuS4eip3sidnv43CGtLV7Uue/Cz+uhfbUnqifoSarAAA4iCwAQAAAKTg7rQ66g/D9JGha2b8+CQNN4rx8Jd80z89/Wa40yvToQYAYB4ENgAAAIAU+Id7VdOnN4GaGZan3wz/9PuoyQoAID4CGwAAAEAetn8W3eIEAJAuAhsAAABALuzwr9d/imd0VwDAgghsAAAAALnYlsblmezJtbx67h8B5eHdc/nprTfcQRAEAOIisAEAAADkZfuNfP5xLQd3p1LxdB5a6Tflb88QsCYI8kktp4MgdpljIhwAEGlrqNjfAQCIbWtry3R2BwAAAORFB3qDYQxqbAAAAAAAgMIisAEAAAAAAAqLwAYAAAAAACgsAhsAAAAAAKCwCGwAAAAAAIDCYlQUAMBc9KgoAAAAQN6CYQwCGwCAuTDca370sGakdX5I7/VEviIOjpNiIt82i87vYBiDpigAAAAAAKCwCGwAAAAAAIDCIrABAAAAAAAKi8AGAAAAAAAoLAIbAAAAAACgsAhsAAAAAACAwiKwAQBYDw/v5NmjR/Ls3YOdgVgWTbebt2bYteMb+2/l4d1zM2/edS7690u3RsfiKuRF4Y8HbKyVPXa5XxYXeTcRgQ0AwOqKKDQnYh8A9Dr801uZd5Vqp+RYr+Pt/GvI3KLp5nHzNph26ay3cBZIU7dwM/Vv7fqTP6wW4HjE/LzXsAl57Bxfz6VNOScH9nybOS1yj4EjxWvbxGeBNAIEXINXBYENAMDa2zu7lb9//LDTrZztXcsr9SCykQX0uOyD4KtvZ9IbpZ2erkUOpqfd9ptPZtnPb7btnGQW/ftVs/3LM9lTP6//nJxoN3+qdFVLPftltb7zKuTFuh0Pc7tuEbxYun25MNdBd9L3EzV7L3id/F0tybG7avzPAmq6PRM5rQqBwfVAYAMAsGG2pfHpWg7Ub9etd8KzTJQbOa6eyp1+WP/0RqWYl/Ngf6Gf2hHP9i/yzIlsTHiLeyNdE9d4Jv+g/IMIewcHsid3cnrENQtIzfYb+fxDPw+oc6tKLZuiI7ABACigQHXgxFVAt6WsC5p3/UAhIVzN2FszwWmWcSC6DCrXB6NlitPWNV66Pbxrme940AwGNWKa2O+G81bM37wl4mFyYrOPB2k/9/5tRNrbvx1PWb+Ji5Om2/IPJ7Ih3aiPb/406b337JdAeqdxPE5fh+bkjc4Hz7LPbQF60bzUYuRJ0n1whZtKrWnhpPyb/J+uGnB3Kv8vwReMlT4mfZ08cfIhvOyk+X6zj7WNM/H8cdLQn66Tr1WLHeeBfJl6v5wvD5N/p+nbiXdtS8u+XKht6OvzHwnvJ7H2M8b1b7K88s7ZJ/9xNuEYi/l9Zq8rxv08IQIbAICC0Tdv9SDhqfr7b1EPFLqGgV1iLqbphVrvwfWommpPFSSuPc0u9n/X853aHuJZrhjVjOOm24P857OecyC11Gtl6Ldij+SPslsd2G0WFOchXe9/VU7FW+X7Wp6cHo0eqsyD1J+/2s+cz7N9Exf/WJzWHCWyGUoax2OMdYx9kz+eH8g3t6p2qKZOULy8TJYnSfbBeYj3N5Vy9yFJwaE4tt80TV5fH8Q9X5Kkj5Of/yuXdlmdT05+Hqs8rPSbgXUE9iHRsQbnWPemq7p2HOg8CObNosd5/GvU4nkY8zut4r12/1ezrbvP/3WCqUqca9es/VzsnpRn3jnnf1rXc73cq+sD+be73G1ZHRve2mb6u02/n8+DwAYAoFBu3qqbtyoEnl2OCz364eLf5skipof/ilN2/9W0g9Zu/qUeFvQDxO/j0vz2m0t1c1cFiTVoshI/3R6kr9NmrzyjYDsf3cZ5/HC6LY2m3oEJNRk8ovZffQO5+PFJGnaGecj05J/53L6Jm7X+eSQ6FkfNUYL9JEQ3Q0njeEy2jju5e3KdqOAQJy+T5Un8fYg+HtxmZupB+18ZZPjSTXmzHDBX+qhC0Tjt9+V/9IGi1qL/G+dhdD6v+/UzfepY14U6T3rt/x7Om0WP8yTXqMXzMOZ3WsljJVyLM437ySLryDfv0rye23ua5/lK7Yx89gSqo49rtS7P/XweBDYAAAXyIINv6kdEXwT7v52p22QcN07/Efqm+pt727U34ic/e26y2raUnqgfoSYrRZNGuqXjyc+BHdgum+1/+2taCk/e/7imr38eSdPUfVC8k8//9eyLbYbib/aTxvGYdB3e8yGe+fJyLLxc3H2YdjzsS808Z0/qz6Tg9n8zhZW7qW8250ufg1/9ab/9sz5QwvNd4/xb9+tnNsJN/WzhepQ3ix7nSa5R6eTh7O+0HsdKGveT6evIP+/Su567eT6ps+Npx/ViCGwAAArE1iYI3cCnuzO9nj+y04Gt2ul5M/Dwl+j7rFwfeJZzplf6gaHw5ku31bGK+z/HPkVVdzbNUALNftI4Htf6mI6T9t9kEO95vGC2pXGpCzbT3tbnnD5rf/3Miy2IjiyajwmuUZnlYeA7cazEtAp5Ny/PNaqq9yPYZCrBd0uIwAYAoHi+/aVujfGFhnib1Hbf0z7VPzlD9xVerHSb1LFqMfg7rlOTytNMJToW7VvWu8/yH/NH9k2bt8quVxrH4woc07nnybrbfiP/NG/rD1ar/4p1v34WVZJrVF55uHLHii1sB5pgpnHtWmgdK5h3sb6PGW3G6edD3fCcAEfiTt6TI7ABACgQW+hO2/bP4ntRtnaSpJv7hm0F33hPfchzelivnIqc3Xoe6lThLxvzHYv7v5rIhtMcxW2GEqzqn8bxuBLHdMZ5MvV4eCKltF8HrhCn7wKZ3n4+r/RZ++tnXtwq+oH+jebOxwTXqMzyMPCdVvVYCY1Mlca1a5F1rELeBSX/PttvPpllTL8gwaYpSYI2MRHYAAAUiNtm1H3jPWY6z7K/J2cfIta1XX7CdHPa8M7umC4/wZoOUewbt4PmQp2PxTfnsehpjtKOaoZipHE8rsIxnVWeTDseZtSCWRu2c8+7U/njs501knf6rPv1MxuhEZLcTq1HVfQXzcck16h08nD2d1rFY0UV2FvOtfifo84z07h2LbKO/PNutvm/z7bZQVec+/l8CGwAAAolqtBthhb7tmc6upqP2yb0Wl75hiRTt3Jd7dJXhbKYD/GJ0k1XI9VvYdT0UyA99AO1Hn5w0fHmkxrt/5F3f5w3SE51/Ih80UPgzVF1OK75jsVxgfR0YsEkjeMxyTqykl2eTD4edG/7B/JvX8/968kd9eDuzl/M0fJNn1U41gpIX19HaaPy5kgXWP0d6C6aj/GvUSnl4czvtGL3WjNMalVO79Q+3nqbbCS5dk2+Bi9y/cs972aK+X1MmnqHf72R/3eqrlGezkInH9ee4Wlv3jpNXRLsP4ENAECx6EL3rbop6gco28bTjL3+qblYdUzTJlQ9KqoCZ8WuV09mTH7fw6N6iDBD7amHCLvMSrVznyRpuu3/LmaM+kB66M5X5Xo8Tn9uIvOnKp+f3cqFyZ5wvvxU7cs/zTj7GZnzWNz+5Zl9MJ0yCkgax2PsdWQlwzwx3+1WzsR/PJw+0e3MN6VPB5W+ZqSdCHmnz9KPteI5UNfRf6szYZQ3dwfy7+Bwl4vmo/77uNeoFPIw/neKs53077X+jsTVVD2VJ2qf/w4NM5rk2jVpPxe8/uWcd7PF/D5qX/7v7Nt4GbfDdm/fZpH7672fz2drqNjfAQCIbWtrSz0M/LD/Qpb0TZ+0zg/pvZ7IV8SR9XGi36JXTu9MEGCRQtwqWYXvxPm9WXR+B8MY1NgAAAAAAACFRWADAAAAAAAUFoENAAAAAABQWPSxAQCYC31s5Ie2w/kivdcT+Yo4OE6KiXzbLDq/6WMDAAAAAACsDWpsAADmomtsAAAAAHkLhjEIbAAA5qIDG9xC8kFa54v0Xk/kK+LgOCkm8m2zROU3TVEAAAAAAEBhEdgAAAAAAACFRWADAAAAAAAUFoENAAAAAABQWAQ2AAAAAABAYRHYAAAAAAAgdQO5rG7J1tahdO2cfCxru8tDYAMAAAAAgLQNvsiHnkildSw1OysXy9ruEhHYAABsjsGlVLc26w3G0pDWK2twWVX5ovNmPB2SSatjdO6oqXopAzt7ku6hm49VuZy1MIqpezg6V31TjONjsq4c6nVs8Mk/17Uw4b1t8OWD9KQiL5+W7BzH+Lx1p+nrCy+/JdUpJ3zUdpN+37j7mEc6xkFgAwCwEcyNt9xUN3pkjbReXTpvyh9eSn84lKGdOg2Rdn36QzJy1P86Pnd6TbmY9tSvCgfnbfs71l6jMz5vh/2WVNTxUSZ4PJd5roXJ720D+WKqTbyUcXzBCSjV2w3pjLbdl1alLfWo4KQNANTvW7591dPtkT9YMhbebrLvG38f80nHmNTGAQBIrEi3EHWTNftbaXWGrYr+vTFUN+vCIK3ztXmPR52heg4dSqU1VA+na6sw+dpp2HOo5eSLKs1O4pxvjWGrVVE/K8PWOmdgTlbyOLHHRPBQ6Jt8D8+Px5738/3xykkn3yZfC+e6t/Vbw4r5m/HanDyLOFftsv786DvbSnptjthutOjvm2wfo6ScjhGi8psaGwCANdeVj2116+zotxtlOw/ZIK2LqSw76mlVel+l78zASngqL1TpQNrnE5qYOOebNF6oJSeLU53cvEGNeltsm0AEq5X71xlVY8A2c/BMG9ziITOlx7vm5/33QMaFmq7489bJv7qYyj7t+mi54Bv2uE0R1seka+F897Zwc5CoGhxW6am81NtufxyncfdCmmrxxsmRTKqbEWVS85ewqO+bcB8jpZuOcRHYAACsuZpcDYdytSm9Zy0VaV1Mffmq6wRXdtTjKFZJzUQ2evLhSziyMbg8VwXTirSOJ51wtjq5rwr7lCrvMenCrq+Ken9Hzr19PZiq86rQ3OjYbQ6l36qYqukEN9I1+H5vfu4+HpdATTDi44tR2g+HHWmoY6hZHgclalfufMWTT+OmDdkcO6tv0rVwnntbVy50VMIbILAdeqoMiwhUlMSJU92LG6fqmshlRXYSXZgjtjtRxPdNuI/R0kzH+AhsAAAAbLLuR/PmtvLyaaK3gshB7VgVJkV6zYtRodQx5a2q1T3Ub+Qr0nrvfdtbkqNbW9Cd2nnHJONaIqOySelIbm/H2+heNKVXUQViT+mldPTefI/2+SKdXcJncCmvTQG2Jd7Ylgla+EqOqjDZMVV/5GPMLM/m2CmANK+Fdl1Ja1uE7crjfrjz2Il9IiXZblbX/iXdUwhsAAAAbKyBXJreJxtyMrEjOixPSZ46db/9hdKZVdQHYl7mRwY+araJy6zq5FFsFfNZzWNCb3vtm16aOy1E13oZFW7LTdnVnYl6gkqzhJqsRMrq2Fl16V4LndoWDXkRUTuhEqsKhs0Hde7Xz3d8nXPqGlC9ZjlyRJtp2/Wb/n3j7WOU5d1TCGwAAABsqO5h2Skgd67Gb+CxUkpHJ6qIoGMJ49oOswsvtip4ZHVy16zq5FFKcvS+JapYJc2yLmAHmiUMvqu1Kp5+G9yprncZC9F9EziFW6cZSbueRbOQrI6d1ZbutTCiZpNH72uS8F5DOoHglVsDKhxgmr5dr1nfN9k+ji3znkJgAwAAYAPpDiN1YbPS6tMvykqzb8l7H8R0tWGHeK20jnMvOBi66Yl9a6x2yglwBN8ce/pt8E8E0NJRkys93OuEZiFOZ7CewBJRpalSvxa6zUFmV5uIsCtOlylufxZRJvR1EXO7i39fdx/9ln1PIbABAACwYfQDaNl5rebpMBCrytuJqOnDQhVpZ494oNx/H9XyCIsunMRVOro1wQqn+wbbNKX0WK0VuSgdyYk37Y2BXFa31Lkt0up7AkomkxLK8NhZJelfC8dNMULxBff8iExbtwlQsMPNuLVjpmzXY+b3nWsfY6w3BwQ2AAAANkn30HkADXTwiBU26kS07DTpaJzI9LJDoJaHT7i6ujNsaE/8tc/dgtJ0ZdPphsvtg2Md+2BYPeFRc2wzkpnHxzTJjp1Cy+JaaEcVia5RNSVt3b/zdLg5eVQkmw8RI65MrckV6/sm20djRe4pBDYAAAA2hR6K06krLP0EnQ5i2dxORB1xqrjXjm1ThdfekUj0G3094kVDOt4CSO2F02eDtx8P21bexwzlOh42VBew/ENLun1wtKXuHQJW0W90ozo7xAJsvo1HzYkILLnnfMjkIFSiY6eoMroWDr58UCk3uUZVdNp25bDsjCb03huRGgU0X/v6UokatWbWdpN830T7uEr3lCEAAHMozi2kM1QPfmZ/I6dGxy63uvR+FkPx01rT+7quOo2IfPFMlVbfLrl+9PcrhE5jQl7Y86vSGgY/6bcq6m8qw3D29YeqYDTKXzNNOg/7raEqQ42WM9u387x/4mzLs76I/Ym8FnD+z88eE1FJ6ObH+LNg2jfUHGfexGPKTv71Jzh2VoDevySSXQsjjmfvNEoXm2aR54RXsvMjvK86T71mbzf5tT/ePmaTjrPp5YO29P/UBwAAJKI7JOMWkg/SOl+k93oiXxEHx0kxrUS+6doLTgcn+fYzsaztLlFUftMUBQAAAACABcxsDpKRZW131RDYAAAAAABgbsH+ZvKyrO2uHpqiAADmQnXd/JDW+SK91xP5ijg4ToqJfNssUflNjQ0AAAAAAFBYBDYAAAAAAEBh0RQFADAXXQ0QAAAAyFswjEFgAwAwF9qz5oe0zhfpvZ7IV8TBcVJM5NtmicpvmqIAAAAAAIDCIrABAAAAAAAKi8AGAAAAAAAoLAIbAAAAAACgsAhsAAAAAACAwiKwAQAAAABA6gZyWd2Sra1D6do5+VjWdpeHwAYAAAAAAGkbfJEPPZFK61hqdlYulrXdJSKwAQBYe4PLqhnz3DsdbsorjJyR1gXTPSSflmlwKVX3XJmQAc45VZXLgZ2BzeM9TnzTIm/ju3Ko18GJ70nfmOmZ4Lo5+PJBelKRl09Ldo6je+jmoTtFbHtivqupeinTLglR2016f461j16x0tGtSeKd0rm+EdgAAKw1fSMvf3gp/eFQhnbqNETa9S2pUlJIFWldNKpgU2/b37F07XOCF5iq0uqPrq3DYV9albbUVcGQ2MT8TGG/3JSe/fdsSa6bA/liqk28lHF8wQko1dsN6YTyMrqA7893O90eiT9U4hXebrL7c/J9jJeOer1laUorsB89aZYXP44JbAAA1lrp6Db0AFC76oi6n0vvw5epbzyQDGldLIPLc2mr3Onop1ssVaXRkIoqEjRfT38LC4yV5OjWub62zzlu5qFrJJSbPam0OqrQbmfOkOi66TYHefl0dF90/r4irf6Vp4mIysv3LecacJFClCpiu0nuz0n3MW46jtb7PrAfx3q96jj+uNh3J7ABANhAZdnRd9HeV+k7M5AZ0nolDS7ltXkQ3Zz21ytt51je6xJBrynxyzXOW1VvlW7vG0+nGnn029XQZ6ZqvfNv8+Z1tM5xlfJJ8308VfSdKbx9Zz367z37P6NaPSaZcH2dkQ9O/tdVIVNp10fLBd/cO8t5pxlNEQqlKx9VAjQ6Q7k9Ktt5MyS8boabg0TV4LBKT+WlU7pfOI0nNX8Jizp+ku5j0nTsydeMHgYIbAAANlBfvur6kpUddVtHtkjrVdS9aEqv0pL3R7MefJGX0tGJ8/a9HqPwaNqyq4JpozOqzt1vVUy1cje4UXth3sXKhy/BkIFTEAkXXJzq4K/lvV2nfpurq54fyqF+I/v1xM53q6T799MUgj++sMu4f6/XGfV97uW8Wpd7t4r91Gr1SCJOPtSu3PmK5xi6HV0PbFOEe2+TgelNEYqnJlfqe10liOwmu2525aIZCBDYmhSy+zjieC/J4139816+L5S+EdudKOL+nHgf46dj6elLp2aG7xo3kMvXuglLRVrHi4XZCWwAADZP96N5U+WtpomMkNarp3souol444TC5GpRBQRTvb0t5zNKjm4Bq+8pTZSO3ptq4KNmCbVj8+9e88JTiFCmnZOqkDsu3Nbk2NQrb6v/VOF3tK2SHJ04++mtOW4Ky77Szfj7hGuY96S3690W5uIWQhsvVGo7kuVDtO6hrs0RbDLgNn1JqblE0SS9btrzLI3rbK9Z9tecmdrjZ4Lt5n1/Lh3JrT0Wdd8w1cNDqeo+N3q62cutLHo5ILABANgwA7k8N7d9OeGhOmOk9eqxeaIKxQu+HEMWRsGI11PeitsaF6E3qvZt6qhaeUmeOvXGfQXarvnj6HOy8cJ/UJSc17Oh+a77mK+Ww8st/nYWXTk0nTXGT8t4+TWQ7/fqR+Qb/5qYikApNJcoluTXTfc8izp1Kjsx6y/qQMCoxoyddGDANB+Krtk1bbt+0+/PsfcxqdqVDPtOnxq9dlsdv0rjZOGghkZgAwCwUbqH+u2Auo92vJ1iIQuk9eoZXL523o4FOm/DqojRieDgu+hyp7dvBHcKDtYwqvo9imzYoIjnDT+Kw//mvi5tXWtnuPibbj/bPCGyKYJr0eYSxZL8ujn9POst0smEDgxMrNkV//yedX9eaB8nGjhDvZabIrYZmvNV9LVs8SZOBDYAABtDd1qnH/z10Glx2oNifqT1KrJtr1N6O4aMlI7EaelRnz78oadvBP/kKagEO/tzq6nPfp07F38Ho2oKRlqwkNCwnxP6JiEf0jTHdXOh82xXHs/aTnnHqfEQDD7E3O7i9+cY+xjBCaboZifj/lxM0ykT3egtPCoUgQ0AwEbQN3I9HJm/DTmyQFqvKPvQG3rTbws9uuNJ/e+phWnkwh2GUfeXEXpvWnqsihVx+ZujxK+mnpTzJtZ5EespeJsCC/KTYj7cf59SyJyvYFtIia+b4yYeofPMPXcj09ZtAjRvR9tTtusx8/6c2T5O6rRYqV05NTd6HyTU13ECBDYAAOuve+jcyAOd7SEDpPXq0lWY3YKOd7KFHj1cn/432bYKbMedvaacf7CzRuwQjTH7ORiNtvLxMMNmKLb5ArWBliyNfLD9aEQWMjewKVPS66bt0DV6SNgpaev+XYyOPJ3hXHU2eLYwdbtWrPtzOvuYjA2YLBgwI7ABAFhvelhEp86l9BlSMFukNZCakh3lpNfTRRgvtx+OttSr/qrbpglCqMqN2+GjHt0kUBhKTUSwxb0eIEdJ8mFygKx2bPt58TUN0LVB9GgpDekQ/ZzICTpU5OWEsVaj09Z2BKvund6hZPXQvdVgxxNucKLR8QWhZ203yf05yT7GNw7Wvg58J6cPE71rU4IycQwBAJhDUW4hnYaYfZ00VVp9u+Tq0vtZBOuQ1pre143SaZjv3OjYf6+plczXfmuoHvUnnxs2b9Qj/zC8SGfYMJ95pkmZOFpPQ/1VhEnHwIz5/v0O7o/eljPPu1y/VVGfRX2f1aD3feXMOk584uWDw7+sP5/7Q1UO9axHTSt8kdD7l0wwnQLTrO8aeW7YNKu01G/TRGw7ans2333LqSm86OztJr8/x9zHpOk4uhZ5p+TXA/13QVv6f+oDAAAS0W1KuYXkg7TOF+m9njY6X/XbWv22VXc4ytv2qTj/i2kl8s2eZ3rEj1z7l1rWdpcoKr9pigIAAACsscg2+QBSNbM5SEaWtd1VQ2ADAAAAWFsD+aJ7/MtkNBQADjssbNSoH5la1nZXD01RAABzobpufkjrfJHe62lj87V76AxNSTOUWDj/i4l82yxR+U1gAwAwFx4i8kNa54v0Xk/kK+LgOCkm8m2zROU3TVEAAAAAAEBhhWps6OgHABQV0fr8cL8AAADAMgSf+SMDG3//+GH/BQDF8dOjRwQ2ckS1z/yQ1vkivdcT+Yo4OE6KiXzbLFH5TVMUAAAAAABQWAQ2AAAAAABAYRHYAAAAAAAAhUVgAwAAAAAAFBaBDQAAAAAAUFgENgAAAAAASN1ALqtbsrV1KF07Jx/L2u7yENjI081bMxzl8Y3998iNHKv5Pz1/Jw92TlwP756bdT57l/QvN0/qaWXzM8n6yC8AAJCnwWXVDI1YvRzYOQByM/giH3oildax1OysXCxru0tEYCNFN28fmUKrdwoHMcJu3h7ItRzIvz+9kW07b1W5BfOp32uOAr/DBnjexki0pVP7enAtoqbPb1Y91wB0D/VbC//EQ3423EKUdzrclNdFBcH5UBCDS6m6eVS9lFk5NM7XqpCda6p7ODpnvdP8529XDvU6NvQinfR+Fb52zq4NMfjyQXpSkZdPS3aOY/a6bN5Mm6bsbNR2s/q+Sdab5f2HwEYaHt7JM1Ugf/XtTHo/fsjfo0kXfGcHAV5d78nZ7e+yb2clsf3mk9lWXoXr7V+eyZ76ef3n5C9186f63mqpZ7+sVoE/zbQywag9ld+/J8u1vPMLgHPDrd+3pD8cytBO/VZFes0yhbmU6bQuf3jpS+tOQ6Rdp+C8KjgfCqT/VRVMrF5TLqYUQFTGynnb/h5QOro1+Xx75C9YoUhsIbd+L63++Nx1po7scv4mlux+5aR/vd2Qzmj5vrQqbalPDSQO5IupNvFSxvGFuOuqydXoc/+kr9la48Wkuhjh7Wb1fZOsN+v7D4GNhd3IcfVU7nQhN1TjYl8uVCH2YlrZd/93VdD9JI2ilHO3f5FnTmRDffMoN9I1cY1n8o81Lrvv//5D/i5ADRsA9qH+9ki8j/Slo/fqBq3LCheRbx8wn6i0rl11RD3jSO/Dl5lvnJE9zofiqbRa5hxqf5ycO92LpvTUUi1b4ME60X0l1KWt8rczvJVwfMopABO4SibJ/Wpwea7SvyKt/pWnWUdJjt631NyeNCdFHd3mIC+fjrYz97pGbNBC7enkuEZ4u1l93yTrzfr+Q2BjQQ/vWqLL8QfNOQu5Ef1uOM09nkv7QX/sbdryNhxMmNhvx4O0n3v/NqJpiP3b8eRsc7pt+YcT2ZBuVGTj5k+THnvPfgmkh21m4pm8++x8T90kR7k+GC3j3+fp69CctNPp5FnW7btk0bTWYqRZ0n0w5soLACiCsuzoslbvq/SdGQASeSovTGTjfMKb4a581LU1Gi/UkhFs84VQ1fAJzRr05C6r37BGNm2ZtE77pjdqXZjP4PK1NFUhtdHxFjJjCOWvPx+dJgE6YKK066Plgm/O52l+UVxR96uoWhdW6am81Mu3P0amSbg5yPzrGulemONhWt8Zk5q/hKX7fceWc98nsLGQB/nP5zv180Bq87QjmepOTquP5I/yrWm68PePWznbu5ZXkwrcPrpAXZVT8TaNuZYnp0ejwrIpxP/5q/3M+fzAbHP2+qc1R4lshmKa6hzI9cH1aHu9sz3173EB39SAMPugeJYbNdmIsY6xb/LH8wP5dmbTbmbNinhpnSzN4u/DInkBYF59+aru21LZUbdfZIu0Xn3k0aqrmchGTz58CUc2Rm9XjxMUe3Wht67+qtW3VcKdN6z6LbCuen6VqARtmT5BVEG50fFVM9dV0gluzCvG2/kIJhjx8cUoH5z87UmzPA5K1K48+e7Js3HND9scwdd0ILo5wvqIuBba2g+y+9hX08BRkse7+ue9fA+lR1cuTATCEyCYe12ugVyaNmfTghYR250oze/rleSekt79h8DGQh6kr+Mae+X5amvMsKcKxeO+GLal0dTF/gk1JTyczkj35OzSW5jWzWLGTV5MIMHXP4T6/Dre+sfNUVqBWgXRzVBu/mWb6ni2t/3mUs7UOq5b8UaCSbaOO7l7kqxTzzhpnSzN4u/DQnkBYA76YU2/pVIFgff+KpHIQPejeSPorRKLVcL5UAi14wnVtae8XZ3IFo4qLXk/KsTW5Ng0Y5lVYJnMNIdR6+x7oiJuNfP2+ezOTxFlvkKfCVr4olM1udIdH6gzfUqLJp/uYdR1oSRHtzZIMrPJRAGleb+y62qcpHhddYMOjZOIJklWku1mdX+Ovd507z8ENlbYk58DheLtsqkp8e2vaaGABxl8Uz8W6ONi+vo1t+B/J5//61nWNkPxN8uxwY4nP3vmadtSeqJ+3PVjBDaSrmNPzn7zBgpmmy+tx8LLJd+HKHG3D2A6pzq1W43W3kT7UW2VkS737VJDTkjslcH5UEQleerUAfcXTG219DQKTyXzKrYnX+eqO26bw4Te8to3vDRFm8/gu9zrn4F0XWRkiftYkauBfNcbjgyY1WzTqFnNEYpm+v2qspOsPkHXaR8WWdMm6bpcTl86aq1Tqu9M265fut93bPp6s7z/ENhYO7YWSSgIkLL9X02zkbvP/x0FFZxmKIFmOQ9/iY6zePvNcKdXevE40lgHgI1mOqwaVaVVU2dXmmV1U40xhCLm1z0sz9c2HJnifCim0tGJKir4az/EL8TMNnBKsjJXecYtgHv6anCnut5FzKf0WJya/99956bTjMQ9f51GROmyNUUimyO45q/ds4pm3a96iSJ+435vFl+Xy66z0pLJrc6mb9cr3e87Nmu9Wd5/CGwsZFvK+rV+rFoHq8fp5NITKDhIEiXYl5oT2ZD/mC9va1Uc/Ko+ieDpG8M/JRjmNo11LGixNJssq/UCmKB25TwM9pryej0bCi+dGdZNPWDpNvxztddHfjgfCsK+Ke99ENPVhh3idVongtFKcnTi5Pe4NUGSdvlTePpq8E8EN+czfyeM/jfjaiLCNNHi96tdeew9b9zmIHNFHAPrspy+dNQ6p9XOirnd1L+vNdd6U7z/ENhYiG0KId9ksGqRjW9/TQm2OCOmVE5Fzm49AQLTr0N8+796mqO4zVB+DYQYtn8Wk0SLSGMdC0snzcKyWi+Amco74jwvUkE6bfrhpuy8smEIwqLgfCgEbyeiTrX0OCMfBLl9bFTkvu4WfOtOp5+BoRhjc2sWIGUTmiBNpfK3uqWuwSKtvie4NE/NjkBNEb/owm3RzLxfTag143Cb7Hj7QBk3xQjFFxKvy2UDj1NrZ03Zrkf639ex0H0/pfsPgY0F7f92Jnt6BIt/rUovj8GaFFFsc5WD5qgz0bl4mqO0o5qhGLZWy/WfC4zwkcY6FpVSmoVktV4AM/W/mraq87cjRaTuofNwE+hEECuO86EYRp2Ilp0mHtM6EZzIaWZQeflebr21KiLO1+h+N9wClJetWbB2/S4s36gJUj3uMKu2Gclcx4YrUDvIJ35zh5UX6341JS1sZ56+TjLdeZE1qRKuy+V2xjmtdtbU7VpZfF9t0ft+SvcfAhuL2n4jn/Xbdd3/w/Pg6Bx62NVH8uxdvtU5RsGWI+/+ODUDnKFRIwIFejjVxM0f9uV/9LAkd6dy6lTXiGgSsi2NS70/1/IqkD6m+cVbb6hiUgAjyTqyklaaBWW1XgAOZ7i6UKdqelhCp76kZ1QALMyTrv153/wiQ5wPxee+wXfMV9XdCULo4IivqYKegu3cay+cQrW3Xw/bht6vJEfvW1JRxa96YB36Te4W470uoCZXfZu2EcOsOn2jeEUEmdxzPGRyQKp2rLfZk+Zrb37q2iC6w8eGdIoeuE5wv4pOC3U9LTsjAXmvm4MvH9SSk2tSJVmXww0kTq+dNWu7WX3f+OvN/v5DYCMN+7/L3z+u5UAV8CvefhIe6YDHD0ky7GgqdLAltD9V+fzsVi5M5GFbGp/U5zpQ4H5e7cs/9d+YFcS3/csz0eXyqaOARO7PI6n0m4FhTsP75QRi9Edx15GV9NLML6v1AnA4D4QSfIB36ujOX+0akdwe23Vb2bI3ve0Ut9d+ZIXzYR24b/B1QWByJ4LT2OCILoh4a2wMO9LQ564vMGEL1Z5z+nxHHSumoB1QOpJbdx2e46v89SSyNggSMGk7FOf0HaetSV/b5GRc/d8dklUHQuxy5a9yovPGLjEWXnYUgzLb7EtLvPlZluau7kel+H2mJLpfRR7bUc23Ygy/HHtdlh35aHoNnNnbzeb7Jllv9vefLXUhG9rfDb0B3cYfAIpGB4YClzRkSN8vSO98kNb5Ir3XE/lqdQ9NR5KNzjDUwZ/TTl6XMzZ3+F+Ok2JaiXzTtQ9sQT3X/qWWtd0lispvamwAAAAAGyLcdGGsbzpnADCPmc1BMrKs7a4aAhsAAADAhig9fWmakXj7zTC6hwt0SApsupSGTE5sWdtdPTRFAbA2aIqSL6rr5oe0zhfpvZ7IVy/dkZ/uBNIvqnnKpuE4KSbybbNE5TeBDQBrg8BGvniIyA9pnS/Sez2Rr4iD46SYyLfNEpXfNEUBAAAAAACFFVljAwCKimh9frhfAAAAYBmCz/w0RVkyXXWe9AbSQVOUfFHtMz+kdb5I7/VEviIOjpNiIt82S1R+0xQFAAAAAAAUFoENAAAAAABQWAQ2AAAAAABAYRHYAAAAAAAAhUVgAwAAAAAAFBaBDQAAAAAAUjeQy+qWbG0dStfOyceytrs8+QY2Ht7Js0eP5Nm7BzsjoZu3ZjjH4xv7b+Xh3XMzb951Lvr3UBbNVwAAAKyvwaVUt7akejmwM5CVwWXVDIV5uCml2VU3+CIfeiKV1rHU7KxcLGu7S7R4YCMi2DCvm7ePzLq8Uxrr3Ug2X6Knt0KyAthY3UPz0MeDX8ZsQWaT3hYVDnmUj1E6R0zVS6Gov/66h+G85/6zGsJ5M+l66NaA8EwxMnHw5YP0pCIvn5bsHI8k1+CE1+uo7bpBL+807SvETxsrwT5GnROLBj5XoymKfeP/6tuZ9H78kL9H07XIwfTgxvabT2bZz2+27ZxkFv37Vbd3dutJT3f6Xfbt5wCwWbpyWG/b35EV8/BUbqqHKqwq8ih/lVZfhsOhf7o9kojiDtaFLejV71vS9+V9R6ROcGO51POAzpt2QzqjfOlLq9JWWVMVXxnb5GNZmuLJx35LKu36jODkQL6YahMvJRjXSHINTn69Dm9Xr6P84aXvOOw0RNrqOAwHFBKkjRV7HyeeE0O5PVrsargCgY0bOa6eyt3emfQ+vRF/eGFfLlRB/IJSOAAgBYPLc2mLulHruzkyod/ClJs9VYjrqIcgOxMrhTwC8qAKh7qgV1EFuFAAqyZXqiB3tSltBFaQ8zxQkVb/ytNUoyRH71tqbk+aF27UaSCXr3WBXT07ePOxdCS3+lmi15TRokFuc5CXT335n+QaPNf1OmK7paPbUCC1dtVR30p9hQ9ffMGZ+GnjiL+PNi0jz4nFZRjYuJFjb/OHt9HVLh7eteRa/TxoBoMaMU3sd+O5tB/0x559iGqCMbEpzYO0n3v/NqIPiVBzD2ebRZIorYx4+eoILKumYDo729fb8iz7/J1KfdfsdThi5JcSbu5EsxxgYwwu5bW58W5Oe9P8deVjW6TR0W9eynYeVgt5tNqcN6Xe6tnBt/rmzaip6u1Z1r41dj5z3qjqwsZ4PROqhnua5jlT+G1s4nUGv8OMagn+deppdjX2InAKh+pcO4lZgIuRFw5VOAw0iZhUhd/JO3e5yekaJw9mH3fRn7lWK58n16SQ0lN5qQvn7Y92//ryVVdDqOxI6IpZ3lEFfb1o9DeJboaS5Bo83/V6avMXn7Ls6C/Q+6q+pStJ2mgJ9rF7IeoxLP45kVBGgQ1dGD2Qa10LwzZ/+LccyE+6ZoZdwvEg//ms5xxILfVaGXdyWn0kf5Tdphi3crZ3La9iFWT1/lflVLxNY67lyenRKHBhCsh//mo/cz4/MNssYkE5blrFzVfFNC9Syx5c23X+kN7Znvp3VGDim/zx/EC+uc1m3Jo7sdcxO7+cZYLNndzvWbyAFIDkuhfOW4L3C1Z1xDS8hVx95NHKMlW069JudEZVs/utiqkqHo4N3Mt5tS73bvMW39vPnjTLW3K+4zZ9cauQ+wuSpqD58cVoW7p5RMP8bVSBM946dSHnUH8H/UbWrrcj9QlV1J1CsL9K+vTq7sVhC4cqRV/EONfi54VOs0CTCLXsbvN1KL30cfNa3ttlpuVXkjyYdtxN+mwF89nWaJDdxxEF7JI83tU/7+X7rH0rPRZn0e++II6jKxe6FB8KECS5Bs9zvZ603SgRQZvEaRN/H7s6AiIV2Ykfo0kkk8DGzVtVGJU9Obsc18LY/10Vgg/sP0YepK9LxHvl+WprzKD7lxj3nbEtjabegWvpzog8RO2/0yzmkzTsDP19/v7dG41Rn1/HW/8qipNW8fNVLfsv27zIk0bbby7lbE+tteWtkaHdyd2T61A/J3HX4dT6mZ5f0XmqvucnG5D6VwEzDUB83UPRXWtk9ZYAABblBl/7nhJC6ei9KgCqQup5sB1/T3q7HZnUJl335zH+rCRHJ7rCeVu8L5ZrV6qA6SuNqAKKaabnX84VZ53dw7pThf39+FqrtxPV+i9qWbPeW1uon1i/vwimvOWPEDcvotNMFyxvJXgozJtf0/Ng2nEX/dna5LOvVoPL1niI0v2ovvcSnjuSbNcuG2wqk61dedwP1k5KZ8SkDAIbDzL4pn7sPZN/+Mupsv/bmSpa5ufJz4Ed2C6b7X/7a9rr+cn7H9f09efr7rQaaHoR3ZRjdlolydcb6er2RU9+9gQRtG0pPVE/7vqBwMaenP0WrLITdx221s/U/JqWp/tSMzGcP9UWAayngVyeq1u3KjAcJ3rrAQDp6TXLUx7mnerc4bek9g1pqFClCopTLmi7jwPFFFtl/n7mK2hH1HKz1zmQ7/fqR8Sb4tqxbpvvNXlZXVB/Ycrg3urumytO+kZZJL8m58G04y7qs9XO50qsqgM1OTYdR7SlHqg6Nbh8bZpWRHFqJ8SrsZOm+Nu1z0Zq2ZOIQFW8tEnCHgs6Hc93PLV3nJpp5vq4YG+6mQQ2TC2MUIG0KIq+/35Ro6LM1xlrgnR5+Et0HEGuD0JBlVc6WBFH7HXE2a84y3yTwerEowCkyHnwCL4tAoB8RY2KMnq7PfguzjN/PRT8KM5ATraWQmQV9qA4y8ZoCrBRkqRvHHnkwWrnc+9ruA5GFNPxpq5BEzg/X8uJqVEVZgOVjReSb1wj/na7h2Wnv4uOt4PQsbhpk1ygE1bFrZm2aJAru85Dv/2lipOzbEtZv+oPvcEvBqfjS0+h+yBuqb3AYuWr5ekbwz8lGG42jXUA2GC2rWnjJFRNFwBWjqd/Df8UXfhYlL9zSTWlEUWJ7G9g00R1yjhdJnmBBeyKr9JL7Sp0XqryeXTgxm0Okn91jVjb1ceaPrx0sDVZ/x2uQNrE4vbPESVBvyZTZBDYsMGKWGyzglV8Wz61AO+MwFE5FTm79RS2TR8b6ypBvm7/LCZbF5F0HXECLlOXeSKldaiiA8DP3uRDb0HtA6PuXE3/e8HajwCwGLcTwtw4I2uUmyKtvqewFtUZRmxT+huYZGoQZJ7C06pIUlBLmBdpB47yyINVy+epnX4ObPOZGP2jRAYSxk088o1rxNuuDmrooVl1EDWyr5S00mai7GroZBLYcPpA+Cz/CZQiTWeQ9neX0z/DKnXeaPtciNj/Mdu04aA56pxy/SXJVxsEWajfirjriJNf05axfXkc/EoNEGAdRbxh8T4w6uHJ9L/ne2MBAGmxQYHc+huwTQRSrc3m9gfyQb4ECi6mY1T7u8P2rxCxrFp6SdX40+X0KxKnc8y4eTEtzeaRRx6saj5P2S87KsjsDjVtICHYf5f7962ch5aPs93uoRPUCHRS7JdG2kSrOSuWD6EV22MhZv8xk2TSFCUqWKGHR331bS/QyaSy/UY+65oOui+F58HRMpwhOp+9m1hizcRo/4+8++PU0nA63owodOuhSde8KUr8fN2WxqVe9lpeBfLUNN95Oz1U4Yi/jtn5NW0ZPVrKgfzbN8INAABAnkpy9F4XhNtSr/pHQDFNFFKvVhYRSNHDzS7Y/CGqMK+HMq3fV9R8v9Gyr73fV9de0KNoNKRT9Ihz6Uhu3X4ZAnmqC3J6CFSn89j4eTE5zeareZhHHqxqPkfvl8oXPTSxKvhPHxpe77/uoyLcf9fgywe11oq8XKSEPoeZ23WPKR3UCPRxEbRY2kxROzZ9afQCwxNHj5yTXDZ9bOhgxa0qSHo6fvyjfCt/f2pGNy/Y/13+/qGKl3enUnH7qzCTDnj8CA0Dmjm9/6H9qcrnZ7e24013mFBV6HY/r/bln/pvzApWR9SoKD89ei5tb6QgriT5GpmGj6TSbwaGyZ0i7jrc/Qrk1+mT63FHqWZdt3Im4WXorwMA0uI8rJvmPltOx2TqaV3q7jza/KwA8mhl6YLwsCONXlPKozzakvLXk8BQoGlwh9v05H35q5zo7dsl5qK/Q18VijzN/853+jK8PXGqt3uZ79uXlni/rzomd3U/I9n0KZI7U2swnKdbW3WRjtt5bIK8iDxGyvLh5Zx9JeSRB6uaz5FpqQrYup+bQMFfB+ecz93J3f/gMLsD+eJUaZhS8yDJNTjusrO3O6o1FToWnck33GqCtEn2ffSxrod/7kmz7P6N7iC5oU6H8JDFSW0NdR1cD71y3V8E8qEL2KR3epwaJGfS+/RG6DJj8+jzKXBJQ4b0/YL0zgdpnS/Sez2Rr4iD46SYViLfdK0Ip7OU6P4rsrKs7S5RVH5nNyoKsAT7vx7M6G8DAAAAANK1ss1QNgSBDayX7bLpS6NPYAMAAABALuzw8gt2gJncsra7emiKsmQ0RUnJzVv5ye28dY+mKJuKpij5orpufkjrfJHe64l8RRwcJ8VEvm2WqPwmsLFkBDaA9BDYyBcPEfkhrfNFeq8n8hVxcJwUE/m2WaLym6YoAAAAAACgsCJrbABAURGtzw/3CwAAACxD8Jk/MrBBwSA/pDeQHs4nAAAAYPPQFAUAAAAAABQWgQ0AAAAAAFBYBDYAAAAAAEBhEdgAAAAAAACFRWADAAAAAAAUFoENAAAAAABQWAQ2sPYGl1UzDGj1cmDnLEf3cEvtx6F07b9dq7J/AAAAAFBE6xHYGFxKVRUMowqNmFP30BS2Q1P1UpZW/B7ls5oOo3PaCRJUZXaMoCuHU9aTOpWe9XZFWv0rqdlZqYt1HgzksmrTcDRNTi8nGOOdOMcAAAAArJbCBzZMQbbclJ79N9LV6AxlOLRTvyWVXlPKq1C4bZ/HCF44Ske3Zv9vj0p2Tt66clhvq7S8lahdSGP/4p0HOphTlqa0pO/mqZo6jZ40y1vij/E4gZ96uyGd0bJ9aVXaUo8VOAIAAACAfBQ6sKHfJpebPam0OqrAZWciO6UjeW8Sui0flxjZqDQaUlFF+ObrJdYeSaQmV8OhXGVUVSPueTC4PFc5V5HW+yPxhlBqxy01V+WqJ1NHy/pqmJTk6L1eVqX9BfU2AAAAAKyGAgc2uvKx7dQouD0q23nIWunxrvl5/30cUpjY/MM2Zwm19gg1c0lYA2Dn2Amw9JoSq3wd2A+neUVdFdyVdn20H/4+LmxTFc8U/B7O99a1VzzLBprqxGrKMSmdYkl6HvTka9/+OtFAvnzoiVReytNgJZLSU3npREHC3wMAAAAAlqDAgY1s34Ij2uD7vfm5+3i+ZhOmoP/xxagZxHDYkYauAVBO1ryldHSi/k7HJZI3i6ldudtVGp3Rvoyagpi+KurS9nzWb1XUtqKCD/dyXq3LfavvLHvr1oawTTnuvc0+smjKEf88KD196dTM8KXZQC5f6yYsFWkd25UMvoiOa6hM9tXscJTEiW3diye2BQAAAABLsx6dhyIfqsD/uqnf5LfELQMnZYIKvlK4Kph3TIgiYfOW8d+dp9zhQ/dCFfTVd+x79rN09N4082ifB5u/9KS32wn1j9E91DVCgs0+SnJ0awM5y2jKUTqSW5tm9a0tqR4eSlX3udHTTU6i+/8AAAAAgFVHYANT6VoKo2YU5abs6s5ER7US0uVt3hJL7dgEG3rN1ynWgHCadoRrK9iaCr2v4m/J4anpMDIQU7ElqimH1OSFiS0sqSlH7crpBFb92mu3xXQ22jiJDGpUdmjiBQAAAGD1EdjAVONRUZymG+36Ko2IkUFnloPvYhrbePrecKe66ZQjjr58ndiUw7WMphx2qNdyU8Q2nXEqcOjvGs7X3uzOOAAAAABg6QhsIKaaXJk3/YsHEZxONz1Bg/gRg7DSkZzYwvl8nW9O4Olfwz95Rwkplu6h2+xk3J+IaRpkohsqXxONMrMrc3azAgAAAACpIrCB+EZBhPM5a204NQacCgOeYIEpWM+vdmVrk5xfBpqJzKH0WBXZU3L/fUqgIO/AgG1iE9U8pnbl1NzofZAveofdNIjcf7eZzY7QUAUAAADAKiCwgURqpoOInnwwJWCHMwRscBjRgVyeB2ti2CYaE/p0mF9Nju3wr+cf7Ky5lWXHDB2ySB8Yth8NN1DgYwMMjRcrVPPDBitGwZYp+29HTKm8fJpJPysAAAAAkBSBDSRTe2FqR/SaF+OCv53nHTHEafZg/zESETTQQ6su0hTFckct6fVCG51gUgDD7bejLfWqv2mGaUITs71L7dg22/E179A1VvRoKQ3pzBqf1Qw5uyVbgX2Y3zj48zpQ3WZw+drkVaV1PAq2RO9/Vw7Lzogx7xlCBQAAAMCKKHBgQxWyRv00uIVoZxhLMy/VDhcwZgvIKq3Hw7Pa/jdUobls0/98pz8afWPMHe7Uk0/lr3JiOyZdjFq3aScTV3hfRoeMHhZV75Pn++ip/PUkMFTtFGYdfWmJdx3qON3VfXek2U9H/POgdHRrmv30mmW7vDO5TYN8Q9ZGpkFd2rrvkYxGxQEAAACAeWwNdScHHroAE5iFDJHeiNQ9NJ2q6lFp4sZSwPkEAAAAbCKaogArpyuHunlOo0NQAwAAAABmoMbGkpHeCNJ9eZSbu9Ip8NCyy8L5BAAAAGweAhtLRnoD6eF8AgAAADYPTVEAAAAAAEBhEdgAAAAAAACFFdkUBQCKiqYoAAAAwGahj40lI72B9HA+AQAAAJuHpigAAAAAAKCwCGwAAAAAAIDCIrABAAAAAAAKi8AGAAAAAAAoLAIbAAAAAACgsAhsAAAAAACAwiKwASxT99AMUVq9HNgZAAAAAIAkCh3YGFxWTaHQOx127YdYjC1wh6bqpSytCD64lGrUPm0dSjGzvSuH9bZIoyO3RyU7L7l454HaVmCZ0BRx8nQPg8sVNa0BAAAArKvCBjZ0Ya784aX0h0MZ2qnTEGnXefudpkZnnL7DfksqvaaUl1y4rbT6430a9qVVaUtdFbqLFtTqHtalXWlJ/6pm5yQX/zyoyZVnGe/Ub1XMEo0X3v1wAiH1dkM6o2XdtK4KpxgAAACAVVHYwEbp6FaGt0fifc9du+qIKtNJ78OX5dUqWGelI3lvCsFt+bgyQYSSHN06+d4+X2JtkjnUroahYzipxc+DgXz50FM/G+KNawwuz1UuV6TVv5LxbJXW71tqbk+aF9TbAAAAALAa1qyPjbLs6HJ376v0nRlIWenxrvl5/31cZHaaQkS8xbfNWUI1KULNXBatATAh32Nsx9l3XQPF01TD29wm9jqc+f6mGxNqtqT+/YMSnAfdC2n2dC2YY08AwwY7Ki/laTDqUnoqL01s6+NSa+0AAAAAgGvNAht9+apfPld2VNEOWRh8vzc/dx/PV8/AFPw/vvA0hdC1C3rSLKfbvCXZdu7lvFqXe7eJi60BkWwdev6WnO+4zWTcZhv+ZfP5/nHPg4FcnrfVz4q89EYwBl/EVOLYfRxRm6QkTmzrXjyxLQAAAABYmvUKbHQ/iimmvXwaUSDDwgaX8tp5vS/Hc3YLYZpf+PqUqMmV7hRikeYtbkG88WJU6yDZdnrS2w134Jl0X3XfH+N1lOToJLxsJt8/KO55MEq3E1mg71IAAAAAWKo1Cmy4b58bckIpLTW6E8pRk4lyU3Z1Z6IL9gsxibd5S3xdOVT71dP9QcSMtoS3E/9vXVH7GqrFUt5Ra47/veb7/kHxz4PuhU43HQ+K/u6VHeo9AQAAAFh9axPY6B6WTV8BjY63s0MsajwqitMhZbuedn8QyfWaZU//FHZkkeEttQ6U+OdBVz6aah2Ta9/0vtJTDQAAAIDVtxaBDd15Y10V0nRTgAVGzsRUNbnSw73q/iAWHBHD6WzTUxNEZ14C/uFeJ9cgWXQ7WhrrCMpinVqS88AZ9USkcTJv7ZtdmbObFQAAAABIVeEDG7owV3ZeUYf6SEDKSkfidBtxPmetjYFcVrdUfom0+p7AhOljIk1pbCeLfc3u+yc7D7pyoZcV/xCvI6XH4vQP+l3tcdBATP+xdNALAAAAYEUUO7DRPXQKc7opAlU1clF7oQvhPfnwZVzkdYaA7Ym/5YLb14OXHa0j884q09hOFvua0fdPeh64nYv6hnj1qomTzR/Ek80O2+EoHfQCAAAAWBXFDWwMLqXq1LuXfkadWSJC7YXpa6PXvBgPT2rntc8vR2/43b4e/Mqyo3vTbH8c/62bj6lKYztZ7GuCder5uplKdZymkdy/j30euAGnwBCvAbVj2+zotXf7tqNWta332UamAAAAACC2wgY23BEdVAlbyt7+CuxUXXYPl2urJsctUzr3DE9q+9/w5MX5Tl+Gpk8Or5Ic3epOSNtSd/Oq/FVObMek6UljO1nsa/rrTHwedC+cgNOsWiOlI7nV++Vbb13ajU5mo+IAAAAAwDy2hrqRv4cuwARmIUOkNyJ1D02nonpUGlpZxcf5BAAAAGyetRgVBVgvXTnUzUsaHYIaAAAAADADNTaWjPRGkDPCya50hlcTOvfEJJxPAAAAwOYhsLFkpDeQHs4nAAAAYPPQFAUAAAAAABQWgQ0AAAAAAFBYkU1RAKCoaIqSH+4XAABgVfAMuNlCgQ0AAOLQgY2/f/yw/wIAAFiOnx49IrCx4WiKAgAAAAAACovABgAAAAAAKCwCGwAAAAAAoLAIbAAAAAAAgMIisAEAAAAAAAqLwAYAAAAAACgsAhsAAAAAAKCwCGwAAABgtod38uzRI/kpYnr27sEuBABA/ghsAAAAILa9s1v5+8eP8XR7JnJalZ8ePZc28Q0AwBIQ2AAAAMD8tt/I5x/XciB3clp9Kzd2NgAAeSGwAQAAgAXty8X1gfp5LX9ENEu5eRtsvhIOgDy8ez6q9eFffnKwJM56AQDrj8AGAAAAFrf/q+jQxt3n/8o4tHEjx48eyatvZ9IbNV+5lbO9a3kV2XRF1/p4JH+U3eYu7rLBgEXS9QIA1hmBDQAAAKRgW8p76sddfxTYuHl7INeyJ2eXb9Snrm1pfLJNV/4Vrl+h+/D4/MZdWi3bdGqCdD2LzrNeAMD6IrABAACADDzI4Jv6sfdM/jGOPlj7UjPxij9DTUee/BxYeLssOl7y7S83XDLfegEA64vABgAAADLwIP079ePJz55aFUHfZJC42UhW6wUAFBWBDQAAAKTABhz2ylMCDgAApI/ABgAAABZ386dcqx97z37xBza+/SWTK088kdK8UZCs1gsAKBwCGwAAAFjQg7RbOqxxIP8cdfxp+7u4+yz/CUUgbqRrFv9VLZVUVusFABQVgQ0AAADM7+GdPHtUldO7PTm7/d0XUNj/7Uz29CglR+88tSsepP1cj2pyIP/+fb7wQ1brBQAUE4ENAAAAxHZ3WpWfHj0aT9VTeXL9Q/7+8UkaweYf22/k849bOZNTqYz+piqnT67V8v4gSCJZrRcAUEhbQ8X+DgBAbFtbW6oA8cP+CwAAYDl0cJNi7WajxgYAAAAAACgsAhsAAAAAAKCwCGwAAAAAAIDCIrABAAAAAAAKi8AGAAAAAAAoLEZFWTI9qgCA9HBJyw/XLwAAsCp4BtxsBDaWjOESgfQw1Fe+uH7lRx/bpHV+SO/1RL4iDo6TYuIZEDRFAQAAAAAAhUVgAwAAAAAAFBaBDQAAAAAAUFgENgAAAAAAQGER2AAAAAAAAIVFYAMAAAAAABQWgQ0ghod3z80wUs/ePdg5C7p5m3h9qe8DUCQP7+QZx/9qIU+A1WCfKY5v7L+TsueyXgfPGQXEtRgwCGwgN27BfOqNd44Cv+NGjvUN+e28d/U8qX09uBZR0+c323YesIFSfhj3TjzgzSmzPHmrrnzzKtL1PQPeNJ2QBs799bm0OexXnD2WZ06LnC9JqX2qnsrd3pn0fvyQv9XEs0kK7LU0esozf4HNQWADudn+5ZnsqZ/Xf06+nN/8qQr8aqlnv6zWTXX7zafUbvY3bw/kWj9A/L5v58ST5j4A62Tv7NacG6Pp9kzktKoeHinoLYs/T27lbO9aXqkH+rkDJnBctzimC21fLrzXKnNuqNmeoIIz/a6WzMnDX/JN/dh79ovwdJG+0P0p7/wFNgiBDeRn+xd55kQ2JkSqb6Rr4hrP5B9rfHfd/13d1D694QECyMr2G/n841oO5E5Oq7wZW75taXzS+aHL5e+Ecvl89g4OZE8f00ekIQAAQQQ2kKNt+YcT2ZBuVEnj5k/1SdRbg3DVTe9bv5u3et6B+Vu5Phgt46+KPn0dmlOVVxeCPMs+tw+QEdWzvVV/nX1wpwkFqVC1xPDb5KT74PJvX08U5lBkgfN1riYI+3Khrgf6evNHRLOUOOdM4nNcWd9zcdE82Zayvvzf9QOF8unXZic9Z13fN0T5N/k//Xr/7lT+X4Lkj3VMmvuLc6w7x3142Unz/abnJ+axSJpO+9sHaT9X83QzFPWvO1PLTS/jz9tsrpUcJ66F027qtXh2Ojvb19vyLOs+dxpx88oeT57loq7Tsa5HwJwIbCBX05qjRDZDMW2L1UPtwfWoCl9PPdhdH4wvrKYGhHk7q3iWGzXZiLGOsW/yx/MD+eZWHZxZs0K/EX4kf5TdqoZulWv/hdpcyP/8dbR9Z38nvU1Osg/ODefVN281VncfwoETYPXpY9o217LH9L/V2eI+fCey/6u5Ltx9/m/oIS3+ORPvHF/vczHFPPFK4/q+YbbfNE1aXB/EKQzMd6z/r1zaZXW6O8f6sbqHVfrNwDoC+5DoXotYFknTmX+ra1Kp+bdn5rls3GTCbSaR0bWS4yRCkvuMSrs41+JE6TzhuTP2OvR+VeVUvMfKtTw5PfIcJ0mPJyA5AhvI16g5SrCdcHQzlJt/2Q6tPP1RbL+5VBdCvYp41XGTreNO7p4k69RTPwyMl1cPCk3nLbG3Vop5OPf1qTF+mxyuvRJ/H0x/HeqR5OzSG/xwq32rG+W/QisHVlrUMa3Pn3+bkm1S4VoC85wzcc7xdT4XU8mTh//KZ/3kffDrqG15Gtf3zTO9JpLXXMekKsCMj/V9+R+dGWot+r/xPWzCOUB+pm6RNF00PzK7VnKcRJr3PjPpWpwsnaOfO+Ou4+FdK+JY0f3JfJKGnbHO90isDgIbyJl7sb6Tz//1XFZtM5SDpveCZ4MdT372zNO2pfRE/QhVaY6SdB3qovvb+AIex5Of/WuW7bJai8i3v2bvnRZeLu4+PMjA6fErok+SfamZe+Kk/kyAVTT5mN7/zXmruJj5zpnZ5/g6n4tp5MmNM+qC79qWxvV9Q+3/ZgoWd763oUHzHZMHv/rvPds/68wIz3eNzwHyM32LpOmi+ZHVtXLzjpNxE5/xFFUzZZH7TPhanDSdo547467jQf6jo9aRx4prne+RWCUENpC/iOrhTjOUA6l5r6u2p27xtKt2p1d68TjSWMfKepC+fgMauul4fZPBuj0lYI3FOaYXkdU5s87n4nx54n+YP7BVp8dv79b72py1bWlc6oLMtLecOR+T5Gf6FknThfMjo+NnA4+TcROf8XQRHSecIcG1OI10jr2OOPuV8/UIG4vABpbARmfvPst/zEXMRoU9VZR9PG37/FOC4bLSWMeC/B2vqUntE4AI3/5Sj0FpsA9Te+XZD4KYLmGehB7mJ/UVtALX5kLafiP/NG85D1arXwLyM32LpOmq5gfHyfySXIvTSGfyCgVCYANLsf+riWw4zVHcZijBqq7bP4uu7baQNNaxMKen6MqpyNmt56agHkhTMfUm90RKlOhQGLZPjLRMGmkpq3NmLc/FlPPEtRLX5mLb/123TZfp/RLkdUySn+lbJE3Tyo+0jx+OkwUkuBankc5J1zH1WLHW8h6JVUJgA8vhaY7SjmqGYtiL+ELt7tJYx6LsW+OD5rgadiqCNV+8ZtSCAVaS23Y3fEybTszs7/E8SLvlXFv+6ekMMZtzZp3PxTTzxGsVrs1FZzv3vDuVPz7bWSN5H5PkZ/oWSdNF8yOr44fjZH5JrsVppHPcdUw7VlzrfI/EKiGwgSUZP5CdTrygue2Ir+WVb0xt26zDN3b3pAtwknVkJWLf9BBaB/qLL8bpMOpOTo+8303XENG9Tx/Ivz09WQNFMDqmPX0H6OGSX33bU/NjMkPUVeX0bk/Obv3VZbM6Z9b5XEwlT0LSuL7DHaHg7i4cYsr3mFyFe+26WSRNF8+PbI4fjpNFxL8Wp5HO8dcx+VgZd5Sa7/UIm4rABpZm+5dn9kI8ZRSQ7TfyWY+lf3cqFU//FGY8fd9FUF2AzZBR6gJslxm1O469jqyE9+2nal/+qffJLjE3891u5Uy8300V6J7oNpG0f0QB6WP6Vj0AeTosM2P7f2pOrBYb6nW+eipPrnWTL09nla6szpl1PhfnyJNYTJoteH3feCptzEhjEfI+JmPnJ2JbJE0XzY+sjp8NO06iRkX56dHzKSMaTaHTLu61OI10jrsOd798yznHyqijVLMunleRra2hYn/HEmxtbakT+of9F4BF6Bsll7T8cP3Kjz62Sev8kN7riXxFHBwn83NqkJxJb1KH0RniGRDU2AAAAAAALMQMDjC1vw0gOwQ2AAAAAACL2S6bvjT6BDawBAQ2AAAAAADzuXlrmoLoPq7u9s7kf+g0A0tAYAMAAAAAMJ/9302/JGZaQv8agEZgAwAAAAAAFBajoiyZHlUAQHq4pOWH6xcAAFgVPANuNgIbS8ZwieuNIcPyxVBf+dLXL9I7H6R1vkjv9US+Ig6Ok2Ii30BTFAAAAAAAUFgENgAAAAAAQGER2AAAAAAAAIVFYAMAAAAAABQWgQ0AAAAAAFBYBDYAAAAAAEBhEdhYBw/v5NmjR/Ls3YOdUVwP756bITuX+V1WYR9iWTTfb96a73l8Y/+tLPrdC5N2AIBo3UMzbOJh1/4bwFobXFbNOV+9HNg5y9E93FL7cSjBS8+q7B9WH4GNVRVR6IzLLVxO/Vu7/uQF0Bs5Vn/309s5dgyzLZDvQTdvVT7pvPJMaawXKLTBpVTVA1LUwxPS4Tyc+iceSNMRlbYEILI183geXVMipuqlTD3ybRBJT9PyMd45NZDLanC5qsw89WbuQ/L1JroGxLgmJ1mfWwj2TpmcI550802z8jxL3mNxwpd20ifGcaFy43DKelKn0rPerkirfyU1OwtIisDGGtr+5ZnsqZ/Xf04uxd78ea3+vyfPftl2ZqyI7Tef5O8fP+Tzm+Xt1yrsw0JsTY5X386kp76H/i7OpPL8YHpwY9HvXvi0w1ozD3TlpvTsv5E+ncb1+5b0h0MZ2qnfqkivWSa4sQhbYAmm7XDYEakT3MjExDQfyu1RyS40Vmn1fcuY6fZIwku6VMGx3ra/TxB7H3QhtCxN8S/XafSkWZ52fMzah4TrTZhmca7JSa4petnyh5eBfRVpq3Mkq+tPozPe1rDfkkqvKeVVCJy3z2MELxylo1uz/1F5lA/nOGx0biVqF5a/fygKAhvraPsXeeZENiS6DHsjXRPXeCb/oPy5Zm7kuHoqd3tn0vv0RvzZuy8XP37Ixb79J7BB9Bu/crOnCh8dUc/EyIh5AA0U5kpH702a95oXy3/YLyT10K8LfxVVuAsVlGtypR74r3jFmbKBXL6elObpGFyeiyrKSUeXvCPF3wdnXRVpvfcvVztWBW31s/0x+sybtQ/J1psszeJek5NcU6KWrV111DdUy374kn1NitKRvDdfpi0TkjwXlUZD5U9Pmq+XWHskEa5jSAeBjcKxTUHcKbJJyLb8w4lsSDfq45s/1Sc6rvFLoOAbWLeavG/3naYNB+Zv5fpgtIy/Ocv0dWhOU5m3aknPss/fiVnLxH4fnktbLeBvXqHXEcGuYzw5f+uVdB9c4eYdE/YhdXHyXX+vlsmfg2YwqBHTouk/Me0epP3c+7cRzaBi5Bswn658bDtv1m6PynYeUAxO4VIdvyezC4tGqIp8uNq5eVNu3irrN/J2uRhV6MNNAqLfTPuXK2Czr+6FqDJ3/DRPanApr02h/nhytfvE+9CTr337axxx9sGIud5E+5vnNbksOzrW0PsqSZJnXqXHu+bn/ffx2eScbxHNP+y5Gqr5EuMcnmrn2Amw9JpyEefkC+yHc/7WzXVH2vXRfvhrvXiuHXYKfo8415lY15RJ6QQEENgoFF24PZBr/Tb+h9O84N9yID/pN/R2Cde05iiRzVBM8wW17oNr22zhh/TO9tS/x4XU/d+d5gwH+h+e5UbNDmKsY+yb/PH8QL6d3TrLhmoXBN3JafWR/FG2y/+4lbO9a3kVKFybgvefv4627+yv/tuoAESSfXACC/7mHe4+ZF0Aj5vvD/Kfz3rOgdRSr5URL/2j6f2vyql40+5anpwejdItWb4BSfE2aLn68lXXNa/sqCIGkhnIlw868RryIsbxawoJH1+Mq8YP9dtq3WwgKrhwL+fVuty7TSimvmV3Cib+JgF9aVXaUg8UuvQ+1NsN6bjL9XfUdory5tjR1aVuqchORgds98Kp2fB+StX6JPtQevrSqUFR9+azrUGhPmkdhw+eOPuQZL3J0mzRa3KSa0q+15/B93vzc/dxvHBUULJzeLLS0YmpqeLPu3hqV+52lUZntC+jpiCmyVFd2p7PdPMg3eQnHHyYdJ2Jf00B4iKwUSA3b3VtiT05uxwXwHWw4d8m0hAwao7SChS6o5uh3PzLNl/4fVwi3n5zqQqvehW2JsMMydZxJ3dPrhP1xbB3dutZflsaTf3F/bVSTPDFs33T/OI6vJwj/j5Epb3Zh0+2AP6v7Irf8fP9Qfo6rrFX9uxjeuKkf5TotNPNYj5Jw85Ilm8AikM/vOo3f+Hq7IgjWaHMFEh8pUVVgDTNDKKqxvekt9uJ1W69exiVhyU5urWFrtFrYedNvDRejGsBlI7kNkbThNWzK4/7wTfnk/tq0H0++Jad9Hq5qztJjFuzIeY+6DS2+VzXnx8eqoJnWZo9lWf9iH4L4u5D0vUmTLP5JLymdD+qZdUp9PJp9segrQUjlZZExJJiSXYOTzP+u/OUowRuUKzv2U+3eVD7PBjEjL7OxL+mAPER2CiMBxl8Uz8i+sXY/+1MFRuD3ILnnXz+ryekYJuh+Jsq2GDHk58DBeJtKT1RP+76MQIbSdehCrq/JatW8OTnwBffLpvv/e2vOGGXqOXi7sPktNcF8Jopf0/qz2RRSfM9O/Ol/7S0iydu/gJYDU71Y7dQYx9eIwtByJO3arxD5Uus0tdAzEvoykt5GsrDmrwwZaeP9q2wrfafoOPC1WO/rzpy6+c7kZ1W+oIWuvDvWcZMukBpqvAH35YP5PJcFbNnFnwT7oNWu3I6r1S/9tptVTRUGicR513cfbBirXeO/U1g/muK/a6qqHyS0QVI11IY7Vu5Kbu6M9GMAnnhc3iG2rHti+R1iuejDV7uPg58x5KYVjihJj9R15kk1xQgPgIbhWHfxocCB1Ps/yomtPH5v6OggtMMJdBU4eEv0WVPb78Z7vRKLx5HGutYWXHS/psMMil/z5HvK6Xo+w8gKbcH+9HU2TUjKCx1GEQswNYaCRVkvO7FKXOV5Oi9LgTrqvO6sFfkKuUN6QQKqO5b6ZmFLh0MiHhbPrh87dR2iF17Ke4+qAK8HpJVFaxVid+cd87mdXDFnwfJ9iH+eh0LpNkU815Tuoe6donaq052Q4iOR0Vxmm6066t0zHvOx7RqQAy+q7Nd8fS94U6zBvkZS3JNAeIjsFE03/4aBSlms7UJ7j7Lf8wf2VoVB7+qTyJ4+sbwT79HLx8ljXUsyOns0hNcUftUeLHyfVvKugpFrBo2q2ct8w3AuJDXa8rr4pZylyR5x4f+t9tqil/aSIetwaDf1KsddwqgC7ytz5998xzJ/SxGoau849RyGPW82ZULp3fNGDUNku2DU4DXtRjG/SCYJg0mCqHyYDQ6RpJ9SLLelNIsrhjXFH0e6ENfD8ObT/9KNbkyNVsWDyKkeg6r8/HEibik2/mmp38N/5RdEAmYhcBGYdhCa0L7v3qao7jNUH4NhBi2fxbdWmQhaaxjYc7IG5VTkbNbT1DF9NWQgqnBhSdSyqRKQpJ8t81+Mqs9soCpaZdxvgFYvlAhD/EkKRQ6b9edl+uegoYphKbg/vuUt+O7Euwr0X3LbjZfyKYpKb8xtn09hN5020Kr26TBX/iMsw+2aUBUtf7alZP+vQ/yRa8n0T4kWO9Iymk2zZRrig4MlJ2qGrH6kEnNKIgw7/GezTnsDnmr+79Y+ApceqzO9pQkvKYAsxDYKAy3rwq39sWY6bTT/h7iaY7SjmqGYtjC80L9RKSxjkXZZg8HzVGnlOkI1nzxmlELZmHJ8t3pdyPbzkyTmZZ2rqzyDcDK6H8VXfO4ktUwE2usdhz3LbCt3h3zbXx8ts17qBCrRXQWGlA2VU6KpeZ8YfkQ+sJTCvsBgy8fzDHfcIez0bUM3IKqd7KFVrdJg1u7II190AVlp+8LW0hMuA+TBdarpLO/CUy6pnQPnaBGoHPLvESlgzMEbHDYXLf/D6/szuFjp7MNOf9gZ83N7UdnkT4wFrumAJMQ2CiQqEKrHibz1be9KZ1I7sv/6GFJ7k7ldGIBfFsal3rd1/LquX/0EtM84K23kDwpgJFkHVmJ2Dc9BG0KTRpGaX/k/W66poEe8eNA/u0b0SNdifJ9+4181jUddF8ngXzQQRg9ZO2zdxMjDJmYnHbuMMDZ5RuAPDnD94VGQNBDAzp1wqcOLYkJ3JEp9Fv2UJ8C3jSPKHC4ab+gUXBl1PRA02+XdUeODem4BUgzDKS3w0zb9CHtQm3WJnS6GDWSgx6eM3TMu4XrRmf+ZhCx92FcaA02y3D609Cn3vEchcSE602QZvElvKZ45veXNRJP7YWpHdFrXozPAzvPO2KI2/+HX3bnsNvXSa8X2ugEkwIYbr8dbakHrkemCU3M9i6xrylAAgQ2ikQXWm9VIdHTQecf5Vv5+1NzajOQ7V+e2QLwlFFA9Lp/qCL63alU3D4O1FTpNwPDcLpDnF7LK7uMUzjVH8VdR1bC+/ZTtS//1Ptkl5ib+W63cibe71aV0ye6T5GM+w9Jmu/7v6t9CufDT490wONHrOFtUxV5XFTl87NbuTAJl2G+AYbzcOxUu3YfJp3hC828QrX/X2VOG3MJDnvpdjy4rILGOjBv2jvSUIXMsjdtt+oiHbf/A3eoRM+xXf4qJ7ZTw4WYfjP60hLv9tW5tKvb2Xva1Kvl3rfux9vXI1gss5A5N52WuhmNKniZTlCdqd5WBa6hfzQOXUALHfOqIGpqPyxUOIu/D6bZT6ehCtP+/XCbNMzbHCPZeuPvb/xrcrJrihmGVP8SOk+cKd1hZyexASH1fcbDs9r+Nzz7db6j9t+ONjOW4Tms123aycQV3pdRtpjrgfoskM7lryfxj/m41xQgga2hrnOGpdEnsu5PAOtJF9LJ3/zo9OaSlh99/SK980Fa54v0Xk/kK+LgOCkm8g3U2AAAAAAAAIVFYAMAAAAAABQWgQ0AAAAAAFBYBDYAAAAAAEBhEdgAAAAAAACFxagoS6Z78AWQHi5p+eH6BQAAVgXPgJuNwMaSMTTReiN/80V654v0zg9pnS/Sez2Rr4iD46SYyDfQFAUAAAAAABQWgQ0AAAAAAFBYBDYAAAAAAEBhEdgAAAAAAACFRWADAAAAAAAUFoENAAAAAABQWAQ2AAAAimZwKdWtLaleDuyMFbLK+wZg5Qwuq2a4Vq4ZWASBDeTHPuhsbR1K187C6nBvKt7pkIzCmuD4zg9pHVP3MJRO44n75FKNnlcipuqlTCp6dQ/Dy08tqHmOgehzZCCX1eA6qxJa5Zz7O/67ycdb4u+kLC0dgmauNwOTzutp+ZCHiGOEIALWDYEN5MI86Jab0rP/xmrR+VP+8FL6w6EM7dRpiLTr3PhQfBzf+SGtk6u0+qO0Gk9XUrOfY3ki8+b2SEr28xFbaKzft3zHvp5uj0JLW105rLft71HU51tlaYp/nZ1GT5rl6IJ67P1V4jyX6WWC36nfqkivWY4+n1ckHRyz1putRsfz/fstqfSaUl5WwFIHW1Rei+/46MvLDxPycQlKR7dmvyYfJ8BsBDaQOR25Lzd76obbEXU/xAoyN5TAw0/tqiOqPCK9D1+W+5YBWBDHd35Ia2yegVy+bkqvogreE4IIUQaX59JWZ0ZHR/4iOJ9XpPU+cD4dq0Ky+tn+OH8ROe5zWdT5XDp6b/6m17wIFNJXKx1mrTdXpSN5bxK6LQtk25xUvpzrAE9DTnxBg5Ic3RJIwHohsIGMdeWjup7qyPXtUdnOQzGUZUffh3tfpe/MANYIx3d+SOvF6bfWnmrkE15Tm7fwUVX0bfX40J+Fqs2H/9ZZp37T7NkHX7X6ePvmCjdTKHizm+6FNHvqOeckfmFeJaq8NoGF4xk1c3ryNfWTJqPnslVKh9jrzU/p8a75ef99fOZkcb6G9eWrrpZT2VFX4jgC57Oagvvh3W//+TzhXI6z35O+M5AAgQ1krCZXw6FcUae2gJLeDIEi4fjOD2m9GF3QqEtbvwm31cg7Ul+4eacpkHx84amarmvW6Or9UYWTezmv1uXerco+eiOfZN+cApO/mUJfWpW21GMV0FZTV0cJpCI7CQ7u7oVTs+H9lLflpacvnRoJdW9+2FoRugbD8bwPVos+l0Wfz6uUDnHWm7fB93vzc/fxfPuU7Hz1qskLU2WuKa9nnWSmKZE6nxud0XZ00yPdlDAccHCaAp3vuM1b3HPZvz/z7zeQHIENANG6H8U8prx8Gv/tC1AUHN/5Ia0X0j1UBQ1dgPNUxa9dOX2XLEKvY+gr3aoCr1lpVHX5nvR2O6Fq60n2LWpZpzq8LehcrF4xR/cl4XvTPPF18q487gffSk/oV6Z7KLrrh5k1G0pHcmvzo67XdXioCp1lafZUGvZvJarMHn9/52UDWaF8dK1AOsRdb55sDRKptGTeeFSy89Vv1BzQHh+T+tVwA0J9z3bcpkft83Dnp7pPl/E1QZ3LJ+H9WWS/gaQIbACIMKlNJrAOOL7zQ1rPEiqMqmlcHh2IedFbeSlPA8nn9jGQBW91eYcqRIZKZEn2bfKyuqBj3ii3P67OG1xdmB69YbaTLoy16yp//DUHnBfxqtB9vuPr3NLtZNMfXLDnQ9wCbu3K6XhS/dprt8XUgmmchAvzsfc3OafZgXts2qBGKKCwIumQdL0Z0rUcRulWbsqu7kw0Qd8jSYTP1yCnlo7OCy06wOE0UZLdx4F9LIlpRRPRlDBU+6S8Y/Jo9v444i4HxEVgA0BI91C/DVHPDR165sf64fjOD2k9W9RIFuMXnLbaf6iwsQqS7FucZe9lpcs5unBt3zSfh954N6QzoZNNb8BmcPnaqWkQWdshSBXS9RCnntEsnM3rYEWMpjtT9zc+d7SK0dTZNU0QoocvXW46JFtvtsajoji1Jdr15Te3GuWlGyTyBpwG39UZqJh0tQEZOy1xcBkgEQIbAHz02xl9E9MP277ag8Aa4PjOD2mdovvvEYXIxfnfxqtpnhJMRvu2kuwb6d6oJ0v7NjuS+5kbsOnKhYnyRdU0CHOCgrp2xHjkClOt35Tqe9J8HRVYCAjtbwrcgImvz4ZVSIdk681PTa5MIGHx5lapnK+aqeGj+8RQv7fP/QEXT/8a/mn+4HRq+w3MQGADwIi++egh4PSNjSHAsG44vvNDWqfFjiiTOuctuPMS3FN4MYXFuObYt6lBkF2Zs1/FFRCjtontayb0RtwW8tymC84LdNssIKrpTu3KqbHQ+yBfZm0zKxMDJktMh0TrzVnpSJzuJwJBhNjSOF+DAsGo0mN1BqYti/0GJiOwAcDRPXQKIoGOo4C1wPGdH9I6RbbwEVGINR392d9dzpCSwaExVeHC9HPiZZuGLPR2O8m+uSMzRBXGbeG18WLlmysNvnww36vxYrynNeeLyYfQFwsUynVNB7dg551sIc9tujD7lHH7s5gdCIra31T0v5r1VjxDoCw9HVJbbzai0iff8zUoeBzZQGWqfd1ksd/AZAQ2AKj726VU9VsNXRDJqHMrYGk4vvNDWqfO6YjTX41dD6FYv6+Yt+Y+tRdOe37PCAZuPyd+EYUYN+8SSLJvo2V9TSj0G13dIWVDOisUBNPfITRyhBuwa3T8hePasanS32u+9r2Njx4FJq6aHDsrDQ3R6fQjoU+x41EgKNH+xuYMzxtar+cc9w2nugLpsNLsudlrXozPuTzOV71cRE2VcPqV5Oi9PkfbUg/0n2KaksxV1SWd6wwQ2xBLtf5Z0Bmqi7b5npFTo2OXW0/6OxZBpxGRN56p0urbJVeb3lfkpyjpvQ7Ht97PIuBakkCnEUqf8VQZ+pKq3xqq8sHocycdnftrKE2jlrXz/Lfc4P25oeaE19lvVdRngf3xSrJvw/5QlVNHy5opx+cAvb1YAt/JnabtavjY1+kZgz0OItcdeYxE5EWi/U3wXDZhveF8HVtqOkSZtt4J9PJzm7I951wKfBZ1/th5/nXEO18jRabfpHyJOD4CXybye2h2v/37E3O/58inIP332Gxb+n/qQMCS6PZ+ZMH6In/zRXrni/TOD2mdL9J7PZGviIPjpJjIN9AUBQAAAAAAFBaBDQAAAAAAUFgENgAAAAAAQGER2AAAAAAAAIVFYAMAAAAAABQWo6Isme7BF0B6uKTlh+sXAABYFTwDbjYCG0vG0ETrjfzNF+mdL9I7P6R1vkjv9US+Ig6Ok2Ii30BTFAAAAAAAUFgENgAAAAAAQGER2AAAAAAAAIVFYAMAAAAAABQWgQ0AAAAAAFBYBDYAAAAAAEBhEdgAAABYc4PLqhkO8bBrZ8zJXU/1cmDnJNA9TGUfAKym7uGWOscPJckpvtA1BfAgsIHMuRcs78RDzQobXErV5FOyGxOwypyHLf/EQ1QObEFWT1z3E/KknXfiuM1ZjHtisuvLQC6rweWrMjNbp51Lo32MmKqXaovREl8XZ57PSb5bxLJxLhIZpENinu3kfV2LyrNUv1tIVw71NmLmTb1dkVb/Smp2FpAnAhvIlA5qlD+8lP5wKEM7dRoi7ToPZ6vIBKHKTenZfwPrQB/X9fuW7zrUb1Wk1yxzHcqUeiCut+3viM8WJOr3qoAwPmadqSO7Sz5uS0e3Zl9uj0p2zvqKc09Mdn3ReVuWpviX7zR60ixPKyTHO5cqrf5onaPp9khCOWUL5sH91tPkfJ21Dwm+m9l+YNl+Syrt+oxCesrpMKfBlw/SqzSkUVHPsx9zimy4edZuSMf33foqFZtSVp/lHWTxc/Km0bmVpJeGTbqmIGPqQMISbWYWdIYN9b3VnWeobmhrrUj522moPFH7W2l1huqZTP3eUDlVLFzS8lXs9O4X6jgvYlqrwp2Tvp2G2f9GgS4oy0vv7I5LJz+WnA9LPhaS5Oti98TofHTyoDJsBR9++q2hKiMPVanQzvCbeS7Zv1cFejtjGrtvCZ/BZu1D/O825RifcXykmw6T6XVP5jzD6m1M/M6pm/Xc7KZpFvtitz0pU1bI9HzDJqDGBpagLDvqziO9r9J3ZmDpuvKxrR4XOjpiXrbzAGBOg0t53eyp5/BjqiQnMLh8LSrZ1LU4YVXuULOV6U0bTE2EKcs6n+umF/otvF3OfZNutxV+O+xZ1k7LfYO8iCzviT35muThJ+1zqXvhHGMnCWowxN6HON+tL191FZjKjnoaDCjviH48jKwFsSrXlO5H0XVGdh+XpPR4V/3Wkw9f/CeQ01wk+hyc9tkkg8tzs83JeVaSo5OG+unfl6nnsTbjuuHsa91sW3RtGrtcsCZSuHlMuNnWfNeUeOsGXAQ2sARTbmpYkppcDYdyRQkEG4PrUJa6F03pVVrynqrFCQzkywd9UDbkRYJrsXnw//hCv6q0U0etQVf/jy4A6Kag5a8no+WdpgJRBa17Oa/W5d6t1j+tKr+pJq8KQI3OaL39VsVsq5jBjUXvidHXl9LTl07Bve7Nm4FcvtbNXSrSOg5vMO1zqasjNmpbOwkufHH2YZ7vFlJ6LDpUIPffx4Vva1WuKU762XO09kL9JtL78MW3v7UX4SCDwwmYSeWlPI39NWJeFybsy6TzOM51o3blzlc85/a4yYgTpPA3aepLq9KWemTwJsE1JfG6AQIbWAYb7a68fDrlggYAWdEPTPotlHrYfp/grSXiMR3ITXu7iGjzBdtM4cNXAleFct2ZlTrCI5v/q8Jh37N87coWaC6CC/ekt9uJ1e7dLXR611s6eq8KIWovzrPs2HAVTbm+lI7k1uZNXRXaqoeHTl8TPd3hYkTfBAnPJd2vh+/t9sSo0q487gff1k/o+yzuPiT9bpG1dm2N3qDM0iEpG5hovLC1RmrixDA+iC+GMSnIMPiuivZJn3/jXhcm1YaOPo8TXzcidA+jjvOSHN2mcE1JvG6AwAZyN5DLc3NXkJMYFzYASIO/6r19YIp62MaC7DVeFXLjvKCFhy30yO5jX6EnXBU7fufb99/Dy4ULh7ZA1P6oim1e6hyJlYm2sBfYb10IcWrqr3+z00TXl9qV01Gm+rXXbqsimtI4iVg2wbmkgwqjt9p20oVU03zAX4PiuznI2lI/3/F18qlr2JiAgC8IkPB8jvXdanKsI156HwIBB7cpll8W6TAn+2Ku4ak6EV07w37HQMDDdDqa+/Nv3PN4LOq6EWaPpcjaJzbgM/c1ZZ51AwQ2kLPuoY7eq5tC0vbDALAAt9f18cPurumpP9th8jaPUzBRD6/UhEluQjV8pzq4e9zqJ/q02QDEvNyAjKcNvjvpt+ybIP71RRXS9RCn5aaIrY7vvCTXaeevXr/wuaSDDPYN/HkoENaQTqAZgFvDxltgTLYP8b+bSa9RwGF8vLyWE2cfPLJNhyRsgEUVzn3NeGy/IMHaGU7THG/AwzYpGdX2yEhuzSttTZJQQNPrXmLFSEKyXDfWGYEN5Ea/0dAPOXoYrvnbrQJACtyH3V5TXi/0sIuxrlw4vRJSE2Yu83es7a8xoKZlRBQ8bfD90wa+yJhwfXFe7qhCen/cT4EJXJmCd0+ar91ASErnklvoHvXoOS2I5X7mFhiT7UP872bpNAocK7dHEijQZpUOcxh8EdPVRbAWQempvDQrb4qvdYSdP9qm/XtvbY944l4X4gQD/FbiugGkiMAGcqEvnmWnqkastnUAkLk0HnYxZqtph97c24dl3ZGk/ncxO5PMQ0memhJS/Dbu6u5q3pI7L8k9hURTmIzLrfY955tet6YJ/ELXlykdR6pCvlP+t00XMj+XYrztTrQPCb7bNMGmHit0TXGakSi9ppS9+2L6ETGLiH80F3s+2xowbjOUxHGN0XVhRp7ZtKrE6hU2jeuGFdHR69iuPF7kkT/LdWMtEdhA9rqHTlAj0LEYACxV/6t5UI33IIiZIt7Aeh+W9dCZ+t/cBiYrHZ2ooo8usMXtD8C+pU3wRjs0lKb7JjrBm16/SX10bLhE1xe37wtbWEvpXHIL47P7hNACwYnUzufAd5vINvXw9qWRYTokMx6ZpBPcFzPZkUMC54DTHEUHKhdrhuI2a5ncYabbTCZu/x3JrxthEzpONYKdrCaV5bqxzghsIFt6CDgdWddBjanDOgFAFpwh40KdLXquTQxJitVRkyvT+WL0kIYDp4ToERFUcI/tSBWp3Nc9HUSqAlGS4TgjleTovd3nQJ8Spqr7WlfRSXJ9cTuUDDd/czvNrLSO5yqs6Q5mQ/vgvlRqdPwF/9qx6cei13ztO76iR6GIa9HvpmsQ2KYsC/TPkygdknCDfxML07YgboIYZobDNkdpf7wwgYRQYEXtm6n1MescKR3Je52+uuZKqN8WfQy6zYDiNvtKct2YHLisHevzPtjMSOelPpYa0pk7wbNdN9bYEEu17lnQaYj5jpOmSqtvl1xP+jsWQ2eo7smh/BlNjY5dbrXpfUV+CpPe/dZQPZf5j2k1Fen6U5i0jtJpmP0vyGXEWIX07rcqo2N1PFWG4cM2eP1uqDnOPO8x7qxPfxa8NzvzvJxlo7alTMzPiPtIcKElHwt62/EkuCcmvb7YNPBPE9I6aFL6TdiHaekcfj4LHweRpuVhzO8W+WyY5KBIMR2i6L/xcvZ3Rh652w5sbHweR6Svm16xd3DCcTnh76eex6F1RV83HP5l/ZvrD1sV73rUFLE/811T4q3bpT/HZtvS/1MHApZER2rJgvVF/uaL9M4X6Z0f0jpfpPd6Il8RB8dJMZFvoCkKAAAAAAAoLAIbAAAAAACgsAhsAAAAAACAwiKwAQAAAAAACovABgAAAAAAKCxGRVky3YMvgPRwScsP1y8AALAqeAbcbAQ2loyhidYb+Zsv0jtfpHd+SOt8kd7riXxFHBwnxUS+gaYoAAAAAACgsAhsAAAAAACAwiKwAQAAAAAACovABgAAAAAAKCwCGwAAAAAAoLAIbAAAAAAAgMIisAEAAAAA62BwKdWtLaleDuwMYDMQ2EDmuodbZmxp78TFdoXZG+LW1qF07SxgrXQPR9eiQw7y7HAtScZzXHqnbO+XXTnU2+FECJnn2SXx38S9FsU6lwZyWfVve3K+JlnWY8b+zv28NzMd4u/v4LLqX05Ncb7aTBPOz63qpdq7NUegBAVBYAOZ0jeY+n1L+sOhDO3Ub1Wk1yxzgVxB5oGg3JSe/TewflRBrt62vyMrXEuSsMGF+r20+uN7pTN1ZJf7Ze4SP7vYgl/wb/R0e1SyCwXFuxbFOpfM9svSFM/2+y2ptOvhgneSZX2m7+/8z3sz0iHB/up9KH946duHTkOkXU+vUN7ojNdt9qPXlDLBW2A1qBMTS7SZWdAfqnud+u6NYcfOWVdFyl918zf7W2l1Cps/XNLyVcT0Vg/azrHdaZj9Vw+phcC1JF/5pfey74edoSr3DXVpbRMslq+T8srOr7TUb/HFuRbFO5emHEOhdSdZ1m++a+fs43v6euff3zF7jCfIH73ekAnbc/Y/bnrkpN8aVtQ+VVpJjsgp0l5fRiLzDRuFGhsAlK58bKtHh45+u1S284A1M7iU182eer49lpqdhbRxLUlicPla1CGp0usq9jFp3uBvVSX0AtpWlQ9Wu/c3Dxi/WXbm18W8K9dvv+0yvjfboer3/u0664jYFyXqs3BThTV40929cPLw5Egm1c0IiXUtinsu9eWrrs5R2ZHQUuUdUQVSaX90UznJsh5ZXTtnrnfO/fUpy45esPdVrS19pce75uf99/GBnvQcnXWeTWdrfLnTtHY3C20nhhjrd9LGOe+d32fsS9b7jLVCYANLMOVGhSWpydVwKFeU9rDGuhdN6VVa8n5i1XAsjmtJfAP58kHfDBvyIqP00oGEershHZUnQz31d+TcVt+vXel5HbV1pdFxPleT23TCBCE+vhjNd5btSbM8DkbUXui/7smHL8GShlMol8pLeWpW5xS+/E0V+tKqtKVemIJK9LNL1/mispPggSbetSiFc6n0WEyx+/77lCYm1pRl5792Tn/eW+iaHPu7ZfvMOfh+b37uPp7jOyhxzrPJ9HlVl7ZKQ/e86kg9sunSYtuZLdn679V1aEvKX09Gy3caeln/tSDrfcb6IbCBnNmLsHoIaL1P8HYDABbRPVQFvIRvVYFMZR3kt8GFxovx2/DSkdzexjsHTODDV6pWBW3dYYG6g49ektdeqIKGSO/DF3/hcvBdFV3UV3v51Gyrexh13y/J0a0tqFysejFl1rPLrjzuB98sT+jXIatrUWSNBFtbISjJsnPv74w0S7LeJPsb1P2o9mF8LKbK1jiRSkuO5wxAxTrPJog6r/T6zJ8HLLKdOJKtv6f+a0nfs3ztKnwtyHqfsX4IbCBz/qpm9iLcvxVemgLIx0Auz9Wj7QIPn0DqbOFfdh/7ClzmLaWncKyn+To+tAW/9nnqNSLG1e5rctxSG+l9EG+ljcGXD6qI0pATc6MfiHmpPaq94VUTU+mj/XHl3sDGe3ax3019Wj/fiew40980IItrkc0DvQ+BZghuU6exJMtqyfY3/vNe3PUm3d8gu53Rsbg43RHp6DuWm7KrOxONGSxMytu8JWzyeVU7bqmUj2/6dhYXtf5wQMu9XsW7FmS9zygmAhvIXOno1lONTE2dXWmW1Q1hE4bIArB0zgPwhLeGwLJMqEpv3lKO7pcRr15jK8nRe13A0VW3dUEsmyYfpacvzTbGzVFsE5tRTRFbMyUQwPG7l1UrpyR7dmlIJ1C4LR29F6dMPi6oZXUtMvuqjxVPXyl6ei0nzj54JFk26f7GTbMk602yv0Hdw7IJfiTpw2YW3eeJ8/10DQO9W8tqShXnvCqSktjuSoC5EdhA/mpXzk2q15TXy7kbANgYXbkwT7Yn1BLDirFvKDPq1NDQTU9UIUzXHtDVv00hc1rnggH+N/BqihqWs/RUXqrV977abzH4Ik5cI7UqCash8tllWmHM/cwN2mR8LdL75w0qqOn2SKILv7GWTWF/I9NsjvUm+W6WPnb14Vpp9TPq86cmV3q410DziXnEOs8midN/irXQdmLIYv1Z7zPWC4ENLIftzXr0IAQAWbDtq4Nv+9yHI7dacYKyHpCSkjzVEQF1hGbdXtx9k67LmPGapgzkUnfu1xRp9T0FSrOCIPs9bM0EtxlKKK4xtQC2K3P2vZivic8uMWqcLONaZLcZK8gUXDat/Q2mWVrrnfLddGG47FTVGHWGm4nSkZzEPqeiJDnPgmL2MWIssp040li/27TG7XMo633GOiKwgeXof1UPPvr6lU2XaQBgRLzp8z4cudWKs3mjB0xXOjqx1dnj9/LvDC/ZE3/ZWhUCTF8C05Vjl4RsNfeYb9Wd5ig6QBNshqLZfjQC/XA4Ijo4XWURzy6xR4bJ/Vpkj4lY/WNELJvW/gbTLJX1Tvlu3UMnqKE+83ZOmZWo/I9/jiY7z/xsjaCI88qMNmN/dyyynTiSrz80TK+t6TWugZP1PmMdEdhAhpzh3UKdng0upaoj8+qmw7CLAIDN5VZnjx721B1K0seORNI+H/db4PYl4KPvtVvegIltAuDrbHBSh30R8917dxTbHKX98cIURoJv0Z3ODHvSfO3ta0EV9Kq6g8mGdFYqspjw2aV2bPp66DVf+/IveiSYvOi01cdEnO0nWXaSPJ/3puyvZ3v9jDr0DHFHBmpejM+VuOdo0vMsYHReeZrC6M6H6/cVNd9rse3MNsf6dY2dUbUclaevdTBG5ekoUpX1PmMtDbFUa58F/dZQXZfM9/ROlVbfLrDeipO/naG6CYfyaTQ1Ona51ab3FfkpdHp3Gmb/C3JoFyituZbMq9+qhNNLKsPI22Xg3mruqXaeN4lD66y0huHV+fNs/PfBvGyoOc68qHv4eFt6uSj9YaviXZ+acj4e9DZjmePZpdMILj8pHQImXovin0vhbfs/90qybKRJ+7vo896E9S783TxT3H3Ry4ZMuWe4x77vs5jnqFpxovMsJGo7kX+/wHYm5K2ZRl8m3vq9aeXPr6jzJdk+62Ww2bb0/9SBgCXR7QjJgvVF/uaL9M4X6Z0f0jpfpPd6Il8RB8dJdtz+Txqd9JuAkm+gKQoAAAAAACgsAhsAAAAAAKCwCGwAAAAAAIDCoo+NJaM92Hojf/NFeueL9M4PaZ0v0ns9ka+Ig+OkmMg3UGMDAAAAAAAUFjU2lkxHFwGkh0tafrh+AQCAVcEz4GYjsLFkVJtab+RvvkhvAAAAYPPQFAUAAAAAABQWgQ0AAAAAAFBYBDYAAAAAAEBhEdgAAAAAAACFRWADAAAAAAAUFoENAAAAAABQWAQ2AAAAAABAYRHYQL66h7K1tWWmw66dh5UwuKyO8oY8AgAAAFAUBDaQo64c1tv2d6wSHdQof3gp/eFQhnbqNETa9S2pXg7sUgAAAACweghsIDeDy3NpS0M6usSMlVI6upXh7ZGU7L+12lVH5ZZI78MXIbQBAAAAYFUR2EA+BpfyutmTSutYanYWVl1ZdirqR++r9J0ZAAAAALByCGwgF92LpvQqLXl/5K0TgNXWl6899aOyI2VnBgAAAACsHAIbyF73UHTXGo0Tf1MHrLjuR9E9olRePiXfAAAAAKwsAhvI2EAuz1XxuNKSY9qgFIjNN2nICbVsAAAAAKwwAhvI1ODytTR7FWm9p7ZGkXQPyyrfRBqdK/pEAQAAALDSCGwgQ125MKXjE+Glf3HooV9106FKqy9XRDUAAAAArLitoWJ/xxJsbW3J2mZB91C2dAl5hkZnuLYF6KLlrw5qlJ2qGjIsYKas9fkEAAAAIBI1NpCd2pUpZIamTsN8rAMa+t/UClgR3UMnqFFpSZ9MAQAAAFAQBDYA6KoaUnXan0j/lv5QAAAAABQHgQ0A0r1oSk//0mtKeWvLNOnwTtXLgVkOAAAAAFYNfWwsGX0CrDfyN1+kNwAAALB5qLEBAAAAAAAKi8AGAAAAAAAoLAIbAAAAAACgsAhsAAAAAACAwiKwAQAAAAAACotRUZZMj+IAID1c0vLD9QsAsI54lgCKh8AGAGAuOrDx948f9l8AABTfT48eEdgACoimKAAAAAAAoLAIbAAAAAAAgMIisAEAAAAAAAqLwAYAAAAAACgsAhsAAAAAAKCwCGwAAAAAAIDCIrABAAAAAAAKi8AGAABAFm7eyk+PHoWn5+/kwS4CAAAWR2ADAAAgQwfXP+TvH3a6PZO9u1OpPHorN/ZzAACwGAIbAAAAedl+I/93tqd+uZYukQ0AAFJBYAMAACBH2z8/MT+//RVokBJquvJc2pFtVh6k/dy73CN59m7edQEAUHwENgAAAHL08Nc38/PJz9vmp3bz9pH89Oev4yYrP67lQO7ktBpssnIjx4+qcipn0vMs++T0aBS4iL8uAADWA4ENAACAvDy8k/89vRPZO5P/2bfzlP3ff8jfv3tmyL5cXB+on/4mKw/vWmrOnpxdvpFxWEQt++OTNOyMuOsCAGBdENgAAADI0PWBp0lI9VSe6M5EP3kDE9ONm6w8yH8+66DIM/lH3D8OCDV/AQBgDRDYAAAAyNB4VBTdJEQHOubt7+JB+nfqx5OfYwdFAADYBAQ2AAAAcrEvF3q4V93fxb/CbUIe3j33dPappoNr+0lyaa4LAIBVR2ADAAAgL9tv5J+m2kbLU2vDGeWkcipyduvW7lCT6Rcjwre/1F9MknBdAACsAQIbAAAAOdr/VQcZ7uTzf8d9Z5gmJgfNUQeg0falZv70s/xnYmQj7roAAFgfBDYAAADytP+r6Wvj7vRfdvjVbSnvqR/Xf46HY314J88imo/s/2abshy989TacGppHJs/jr8uAADWBYENAACAXO3L/5yZ6IMdfnVbGp90x6LX8srtE6Pal3/azkZ9tt/IZ91Px92pVEZ9aFTl9Mm1XJgRXhOsCwCANbE1VOzvAADEtrW1ZdruA1iOm7eP5NW3M+klGDoWwHQ6GEjxCCgeamwAAAAUkOmrY2p/GwAAbAYCGwAAAEW0XTb9bfQJbAAANhyBDQAAgCK5eWv7zjiVu70z+R/TtwYAAJuLPjYAAHOhjw0AwLqhjw2gmKixAQAAAAAACosaGwCAuegaGwAArBuKR0DxENgAAMyFpij50VWjSev8kN7A5qIpClBMNEUBAAAAAACFRWADAAAAAAAUFoENAAAAAABQWAQ2AAAAAABAYRHYAAAAAAAAhUVgAwAAAAAAFBaBDQBAsTy8k2ePHsmzdw92BpaCfAAAACuCwAYAYPlu3spPqpB8fGP/nZT9+9D0/J1Q7E5g0XywwY5QPjx6K/OuUu2UHOt1vJ1/DVgz3uNswnHx8O65+vy5tLkAAMBGILABAFgbB9c/5O8fdro9k727U6ksVKjGPPbObsf58ONWzvau5ZUqhM4dMAEmuW4RvAAAENgAAKyp7Tfyf2d76pdr6VKgXqJtaXy6lgP123WLGjRIz97BgezJnZwecVwBwKYjsAEAWGG2GcKMaueTbP/8xPz89leg2BNqujKpyvqDtJ97l4voUyL2uopssXzQwY2yjjHd9QMF0MB61eSt1XHzVs87kGv9j+uD0TL06wGj/JsTvLw7lf+X4JB0jivvFFGry5zXzrnsNGsJLztpvt/0YxwAkA4CGwCAFaULBKpQu3cmPdus4d+iCrfVU7mzS8zy8Nc38/PJz9vmp2YKNX/+6mkqoWsT3MlpNVgw0duvyqmMt6+XfXJ6NApcxF9XkS2eD5FMPwlqvQfXo/TrqULq9cG44Lf/u5umime5z2/G+YnNtv2maY6P64M455wTZHj1zXtOu02logKS+lx+JP8rl3ZZfSzqZd/KsTr3K/1mYB2BfYhxjAMA0kFgAwCwkm7e6iLEnpxdvhG3GKsLuv82pdwYVKHif09V0VsVyP9n385TTGH5d88M2ZeLa1M08jVZidq+WfbHJ2nYGXHXVWQL54P28F/5rKMgB7+qFHLc/OtU7nSwxJN+228uVQGRJitIYnzO/TGjJk/0Oe02lbqT039FnLQH155A2r78j23epv8bn/tqHc2IawjHOADkhsAGAGAFPchAV7bYeyb/GJdAjP3fzlTRJJp+Ezqq8l09lSe6M9FP3kLMdOMmK5O3H1eo+UshzZcPfjdybGp3qALlb6OwhnR1+5InPwfyZltKuvVQqMkKMMX+byZYcOepTRU27Zzel5qJS/wZqvVx8Os4KKG5zduC813j855jHADyRGADALCCHqSv3/CHCgXTjUdFcZovXB/M29/FfNtfP/Olw91p1dOnwIFtxjKu6SIPf4lpJOTpN8OdXpkONYAktqVxqQNtE2pdGHGO5W8ySCvawDEOALkisAEAWF3f/przrea+XOjhXicUdPyd/qnpYP6SRprrWlkJ88E/3OuUWjOevgf80++jJitALNtv5J9ONHO1+q/gGAeAXBDYAACsIDuKxiJGBZ2Wp9aGM8pJ5VTk7NZTyDBt9CNMLdAnXFchpZAPUbZ/FqdCP5Ce/d9tTa1p/VdMPaefSCmtKloc4wCQKwIbAIAV5LZD/yz/CZRCTId89vdZ9n/VxZw7+fxfdyW2OvpBc9wsIpJtcx+x/bG46yqydPIhzAZMIvo0AOZnO/e8O5U/PttZI9POadsfhqdz28VxjANAnghsAABWktM5pb8piR5e9dW3vZidVir7v5o3uHen/7KFi4jChh6SMaL5yGj7R963v04tDaeqe/x1FVkq+RDi9olwLa+e+9+um6Y9b8fbooCIJNxRR+7uwmG3yee0Hi3lQP7tG+FoUUmOcQDAoghsAABW0/Yb+az7yfB0vvdH+Vb+/tRMUMV7PDyjMwyjO7SjKmy4fWJU+/JP29moj96+nn93KhV32UdV+fzsVi5M+SfBuooslXyIEJm+j6TSbwaG0A2n80r1oYAVo44XM/RqBHPM3cqZ+M/p0ye6H4wM+ryIfYwDABa1NVTs7wAAxLa1tWX6lED2dGGItM4P6Q1sLn3+UzwCiocaGwAAAAAAoLAIbAAAAAAAgMIisAEAAAAAAAqLwAYAAAAAACgsAhsAAAAAAKCwGBUFADAXPSoKAADrhuIRUDwENgAAc9GBDW4h+SCt80V6A5uL8x8oJpqiAAAAAACAwiKwAQAAAAAACovABgAAAAAAKCwCGwAAAAAAoLAIbAAAAAAAgMIisAEAAAAAAAqLwAYAAADWX/fQDOV52LX/ntPgshp7Pe6y1cuBnQMAyAKBDQDA5hhcSlUVMra2DmXBsg1mIa0xRfdQHxsTggPusbNoBAIAsDEIbAAANoJ5c1puSs/+G9khrTFL7bglFfWzfX4pwboM3Qt97FSkdVyzc4qrdHQrw+FQbo9Kdg4AIAsENgAAa0+/HS43VVGp1ZGWLk0hM6Q1YikdyUlD/ew15cJbMWNwKedt9bNxIsQCAABxEdgAAKy5rnxUBaVGR781Ldt5yAZpjfhGtTY+jiMb02pruM1XxlO4mZPTp4We35VDd7lquFbIiO13I7iMf1uTm1O5fWhMXC6iX4/Z++iZbyda5QDAdAQ2AABrriZXw6FcFb9WewGQ1kjArbXRPhfTt+bE2hpOQb9+35K+Or50047hsC+tSlvqW1Xnb33u5bxal/tW31n29kgiK3/ovjzqZoPS8Syjgxr1tprnbqu/o9YXDo6061vyWt4H9mdyEMRvwj6a/kXq0m507HqH0m9VzLYIbgDAZAQ2AAAAsBROrY2eNC+6E2trdA9VQV/Pf+8NUJTk6LYjDfu3fj3p7XZm9GvRlUPTD4wOYFzJeItOrSNpvBjPKx3JbURwpNLqe7ah9seJ0oinAsoU0fto0qDSkr4nOlg6em+adUX1RwIAcBDYAAAAwHKMam3Uxak8EaytMZDv9+pH5aU8DcUpavLC/O3HQC2JWR2P6hogOlgSDGpoZdlxejWNqAnit/s4sEPlHbVlkfvvccIPUftogyq7jwNBlJI83lU/el+l78wAAAQQ2AAAAMDSuH1tRBf2+/JVD68TKux73UusWILVruughu4LJhjU0Epy9N7WIinr/i2imrpkZPBdfROlXff1r6EnE/QBAExEYAMAAADLU3oqL3VkI7JWRvoaHd0fho4fTAha6KYntm8L3WTEBDjy7ODC07+Gf4oKxAAANAIbAAAAWG3336f0L7ErwVYh03lrZUzu7LN0dGsCCh1vB6dZKj1W3wQAMA8CGwAAAFhRth+N3gf5EgosRHT0GZeuleFELKQ+ozZG2XS6kQe3f49gnyEAgFkIbAAAAGBljUZOee0dFWQgl1XbAei84wvXrmxtjLpU3eoYZrhVby2Orlw0ezk1k3FrkrSlHhhednBZzbc5DAAUDIENAMCa0yMguJ3wlUWXUcxbWncehYUUkdbIgOnzoi8taUrZe3zt6r4oFut3onbl9LfRa752mpqobb1v3Y+PWT16ih5+NWK410yY79qRRs/7Xbek/PVEhvMGcABgA2wNdeNBAAAS0g/b3ELyQVrni/QGNhfnP1BM1NgAAAAAAACFRWADAAAAAAAUFoENAAAAAABQWAQ2AAAAAABAYRHYAAAAAAAAhcWoKACAueie4wEAWDcUj4DiIbABAJgLQ+Llh7TOF+kNbC7Of6CYaIoCAAAAAAAKi8AGAAAAAAAoLAIbAAAAAACgsAhsAAAAAACAwiKwAQAAAAAACovABgAAAAAAKCwCGwAAAEDauodm6NDq5cDOAABkhcAGAGDtDS6rpoDhnQ679kOkqnvoT2c9UbDD3AaXUuUYAgDMQGADALDWdFCj/OGl9IdDGdqp0xBp1ykspU2ndf2+5UvrfqsivWaZtMbmqV2Zc+D2qGRnAACyQmADALDWSke3Mrw9Em/RonbVkYb62fvwRShupycqrUtH76VVUWndvBAqyQAAgCwQ2AAAbKCy7KjCtvS+St+ZAaDIbH8W46kqwUpCTpO0Q+mq/w7d5aqX4+Bm7HU48/3NrvR6Ayb1sRFjOwCAZAhsAAA2UF++9tSPyo6UnRnIDGmNbJkAw8cXo+ZPw6GukdWTZjki2CD3cl6ty32r7yxraxglW4eevyXnO3Ydw760Km2pRwU3ApJtBwAQF4ENAMDm6X6UtvpRefnU12wCadNvxusqrSvSeu9vogKkpXY1lOFVzf5Lq8mV7khHHXkfQ9GCnvR2O6F+L5KtQ107Wn3POkpydDJ5Wa+k2wEAxENgAwCwYQZyea7DGg05oVO/1PlHoLFBjf6tkNRYhvvvwTYe6ng89gYWZguvQ2T3ceCALu+oNUcvG9cifwsAm47ABgBgo3QPy9LsiTQ6V5KseIM4TAeio2r2aursmmr7vr4MAAAAUkRgAwCwMcxwpG2nGrmvNjiyo4e81FXte015TQ+JyIi/ppCa9ImeUBrriCOv7QDAJiGwAQDYCLowUXaqaoTa1yNjtpp+7ytj0CBtA7msbqlzW6TV99YU0v1WxJXGOuLIazsAsHkIbAAA1l/30AlqVFrSp6pG/vpfxRkYhXFRkDY76k7jZIF+XNJYRxx5bQcANg+BDQDAehtcStVpfyJ9O7QjsqBHQNmSarC5iSf931OaQ+rKsqOrA7U/jodLdY+52NJYRxx5bQcANg+BDQDAWuteNE1tAd3HQ9nbrt1OoYI45lSTq35LpFn2p7FT716GBJWwgF7wuNLToQ4PlOTotiMNaUvdnV/+KidDPS+uNNYRR17bAYDNszXUjfsAAEhIP5RzC8kHaZ0v0hup6B6ajkF1Z8X061McnP9AMVFjAwAAAMjI7mOCGgCQNQIbAAAAQMq6H3XfGRWhz1wAyB6BDQAAACAlemhp3ZxB9wna6NwyAgoA5IA+NgAAc6Edcn5I63yR3sDm4vwHiokaGwAAAAAAoLCosQEAmIt+qwUAwLqheAQUD4ENAMBcqK6bH9I6X6Q3sLk4/4FioikKAAAAAAAoLAIbAAAAAACgsAhsAAAAAACAwiKwAQAAAAAACovABgAAAAAAKCwCGwAAAAAAoLAIbAAAAABRuodm+M/Drv23z0Auq1tTPgcA5IXABgBg7XUPncKHd6peDuynSNPgshpKawp9SN3UgEM+uodlafYa0uk0pF0/FA5zAFgeAhsAgLWmC9r1+5b0h0MZ2qnfqkivWSa4kTKd1uUPL31prcp8qtBHIAlrpnso9XZFWv0rqdWOpVVpS50IHgAszZZ66Bja3wEAiE2/LS3uLURXIbdvW4eqYGLnrqpip3VXDrfq0q60pH97JCU7d5UVO703hK6xUW9LozOUqyxP4Ly2g5XB+Q8UEzU2AABAhsqyU1E/el+l78wAMuE0g6qKrhzkb342oZmIbc4SNc2ufKEDdrP/JtZ+AAAWRmADALCB+vK1p35UdlSxG9kirZGnnjTLW3K+0zdv3YfDvtNMJBhUsDUxKi13uY40zAe6FteM2hmDS6nqWkiNjv1bp3mbbnLlDW7ooEa97azPLNffkfPqpdAoCwDSR2ADALBhbNMIqUjrfTGaRhRa96NKa5HKy6ekNXKhgxW3R+7RVpKjEx2yaMvHUdBhIJfn6qistOT9aLmaHLd01aJ7+T4j8tC9aEpPN63yRD9KR+9F/3n73A1cdOWjPvAbL8ZN3UpHcluQ5lgAUDQENgAAa88/UocNavRvZVSmQUZsAVIackJiIye7jwPHWnlHnfEi9zMiFqXHu+r/Pfk6tc2UDVjsPg4EKEri/Lnb5Mo2wWqfm6YxAIBsEdgAAKy90tHtqMq4mTq7prr6FtXCM+UMhynS6Kx+B63A4Pu9+n9Fdqa1mRp8F72UtOueYKkz1XXAY6QkR+9bam1O0xi37w8AQDYIbAAANk/tSoZ6HNJeU15T2siEGWbX1PbvM5oEVoxtnqLO/4tR85SuXOgoXOWlPI1TucjTv4Z/8gTxdNMTNU/3v+H2/bHFkLAAkAkCGwCAzWSrp/em1zvHHHRQo+xU1fD0dQCsCrePjYrc190aF7Yz0Fl9YJQei25xkoRbY0zHUmmaAgDZILABANhM/a/iDNbBWB2p6h46QY1A54rA6nBG6qm8fG9qVIxqW8Q6Xt2+Mz76R1mJoWz+EACQBQIbAIA1pkdA2ZJq8BWpHq7RaSfhGRUBC/Oka5/RH7CynOBEr1ke9Y8xmmb2u+P2ndGWemBZ00mx29TEDAnrHWI2YVMXAEAiBDYAAGusJlf9lkiwAFNuirT6s6udIxEzDKb+pdeUsje97RQKMAFLUZKnLytOAM5bY2PYkYY+dmcFN0zfGXZZz/Fd/noyrvWhlnnfupf66PO6tAn4AUBmttSFfGh/BwAgNv2wzi0kH6R1vkjvNdc9lK16WxqdYahjW6d/GB33ZDjoTcX5DxQTNTYAAACwMZxhXaP1decbAIDCIbABAACAjVF6+tKMiNQ+DzQ56R6aIYqlcUJtDQAoGJqiAADmQnXd/JDW+SK9N4HuWLguOo7hFdU8BZuF8x8oJgIbAIC58PCXH9I6X6Q3sLk4/4FioikKAAAAAAAoLGpsAADmot9qAQCwbigeAcVDYAMAAAAAABQWTVEAAAAAAEBBifz/0juXUFzdQHcAAAAASUVORK5CYII=;" vertex="1" parent="1">
          <mxGeometry x="1173" y="695" width="707.91" height="373" as="geometry" />
        </mxCell>
      </root>
    </mxGraphModel>
  </diagram>
</mxfile>
